<?xml version="1.0" standalone="no"?>
<!DOCTYPE svg PUBLIC "-//W3C//DTD SVG 1.1//EN" "http://www.w3.org/Graphics/SVG/1.1/DTD/svg11.dtd" >
<svg xmlns="http://www.w3.org/2000/svg">
<metadata>
Created by FontForge 20120731 at Tue Nov  8 14:22:45 2016
 By admin
</metadata>
<defs>
<font id="iconfont" horiz-adv-x="1024" >
  <font-face 
    font-family="iconfont"
    font-weight="500"
    font-stretch="normal"
    units-per-em="1024"
    panose-1="2 0 6 3 0 0 0 0 0 0"
    ascent="896"
    descent="-128"
    x-height="792"
    bbox="-238 -224 1339.1 1061"
    underline-thickness="0"
    underline-position="0"
    unicode-range="U+0078-E667"
  />
<missing-glyph 
 />
    <glyph glyph-name=".notdef" 
 />
    <glyph glyph-name=".notdef" 
 />
    <glyph glyph-name=".null" horiz-adv-x="0" 
 />
    <glyph glyph-name="nonmarkingreturn" horiz-adv-x="341" 
 />
    <glyph glyph-name="x" unicode="x" horiz-adv-x="1001" 
d="M281 543q-27 -1 -53 -1h-83q-18 0 -36.5 -6t-32.5 -18.5t-23 -32t-9 -45.5v-76h912v41q0 16 -0.5 30t-0.5 18q0 13 -5 29t-17 29.5t-31.5 22.5t-49.5 9h-133v-97h-438v97zM955 310v-52q0 -23 0.5 -52t0.5 -58t-10.5 -47.5t-26 -30t-33 -16t-31.5 -4.5q-14 -1 -29.5 -0.5
t-29.5 0.5h-32l-45 128h-439l-44 -128h-29h-34q-20 0 -45 1q-25 0 -41 9.5t-25.5 23t-13.5 29.5t-4 30v167h911zM163 247q-12 0 -21 -8.5t-9 -21.5t9 -21.5t21 -8.5q13 0 22 8.5t9 21.5t-9 21.5t-22 8.5zM316 123q-8 -26 -14 -48q-5 -19 -10.5 -37t-7.5 -25t-3 -15t1 -14.5
t9.5 -10.5t21.5 -4h37h67h81h80h64h36q23 0 34 12t2 38q-5 13 -9.5 30.5t-9.5 34.5q-5 19 -11 39h-368zM336 498v228q0 11 2.5 23t10 21.5t20.5 15.5t34 6h188q31 0 51.5 -14.5t20.5 -52.5v-227h-327z" />
    <glyph glyph-name="tuichu" unicode="&#xe63a;" 
d="M775 646q46 -33 82 -74.5t61.5 -89.5t39 -102t13.5 -109q0 -95 -36.5 -178.5t-98.5 -145.5t-145.5 -98.5t-178.5 -36.5q-94 0 -177.5 36.5t-146 98.5t-98.5 145.5t-36 178.5q0 54 13 106.5t36.5 99.5t58 88t77.5 74q23 16 49 12t42.5 -25.5t12.5 -48t-26 -43.5
q-64 -47 -98.5 -115.5t-34.5 -147.5q0 -68 25.5 -127.5t70 -104t104.5 -71t127.5 -26.5t127.5 26.5t104.5 71t71 104t26.5 127.5q0 80 -37 151t-104 117q-22 16 -27 42.5t11 48.5q15 22 41.5 26.5t49.5 -10.5v0zM512 268q-27 0 -46 19t-19 45v390q0 26 19 45.5t46 19.5
t46 -19.5t19 -45.5v-390q0 -26 -19 -45t-46 -19v0z" />
    <glyph glyph-name="liebiao" unicode="&#xe648;" 
d="M485 376q0 -24 -17 -41t-41 -17h-206q-24 0 -41 17t-17 41v215q0 24 17 41t41 17h206q24 0 41 -17t17 -41v-215zM485 8q0 -24 -17 -41t-41 -17h-206q-24 0 -41 17t-17 41v215q0 24 17 41t41 17h206q24 0 41 -17t17 -41v-215zM862 376q0 -24 -17 -41t-41 -17h-206
q-24 0 -41 17t-17 41v215q0 24 17 41t41 17h206q24 0 41 -17t17 -41v-215zM862 8q0 -24 -17 -41t-41 -17h-206q-24 0 -41 17t-17 41v215q0 24 17 41t41 17h206q24 0 41 -17t17 -41v-215z" />
    <glyph glyph-name="wrong" unicode="&#xe605;" 
d="M874 -2l-302 302l302 302l-60 60l-302 -302l-302 302l-60 -60l302 -302l-302 -302l60 -60l302 302l302 -302z" />
    <glyph glyph-name="jianhuoguanli" unicode="&#xe615;" 
d="M234 442l256 -141l258 142l-89 45l30 23q6 4 10 10l108 -55q3 -1 5 -3l186 -12v0q12 -1 18 -12q5 -9 2.5 -18.5t-10.5 -14.5l-186 -110v-265v0q0 -14 -12 -21l-307 -169v0v0v0v0h-1v0v0v0v0v0v0l-1 -1v0v0v0v0v0v0h-1v0v0v0l-1 -1v0v0v0v0v0v0h-1v0v0v0v0v0v0v0h-1v0v0v0
v-1h-1v0v0v0v0v0v0h-1v0v0v0v0v0v0h-1v0v0v0v0v0v0h-1v0v0v0v0h-1v0v0v0v0v0v0l-1 -1v0v0v0v0v0h-1v0v0h-1v0v0v0v0v0l-1 1v0v0v0v0v0v0h-1v0v0v0v0h-1v0v0v0v0v0v0h-1v0v0v0v0v0v0h-1v0v0v0v0v0h-1v0v1v0v0v0h-1v0v0v0v0v0v0h-1v0v0v0v0v0v0h-1v1v0v0v0h-1v0v0v0v0v0v0
l-1 1v0v0v0v0v0h-1v0v0v0v0v0l-307 169q-12 7 -12 21v0v413q0 3 1 6l-148 148q-7 7 -7.5 17t6.5 17q4 3 8 5v0l322 137q14 6 25 -6v0l37 -36v-39v-15v-14l-59 59l-274 -116l125 -125l129 59q4 -17 18 -28l15 -12l-122 -59v0zM454 760q-7 0 -12 -5t-5 -12v-171h-64v0
q-8 0 -13 -7q-4 -5 -3.5 -12.5t6.5 -11.5l71 -56l71 -56q11 -8 22 0l71 56l70 55q8 5 8 15q0 7 -5 12t-12 5h-64v171q0 7 -5 12t-12 5h-124v0zM562 274l94 -21l262 155l-108 7l-248 -141v0zM205 404v-359l261 -143v358q-81 44 -132.5 72.5t-128.5 71.5z" />
    <glyph glyph-name="jiaoshuangzuo" unicode="&#xe606;" 
d="M637 26q0 -8 -10 -13l-51 -29q-10 -6 -23.5 -6t-23.5 6l-473 266q-10 6 -10 13.5t10 13.5l473 266q10 6 23.5 6t23.5 -6l51 -29q10 -5 10 -12.5t-10 -13.5l-400 -225l400 -224q10 -6 10 -13v0zM1027 26q0 -8 -10 -13l-51 -29q-10 -6 -23 -6t-24 6l-473 266
q-10 6 -10 13.5t10 13.5l473 266q11 6 24 6t23 -6l51 -29q10 -5 10 -12.5t-10 -13.5l-399 -225l399 -224q10 -6 10 -13v0z" />
    <glyph glyph-name="jiaoshuangyou" unicode="&#xe607;" 
d="M604 263q0 -7 -10 -13l-473 -266q-10 -6 -23.5 -6t-23.5 6l-51 29q-10 5 -10 12.5t10 13.5l400 224l-400 225q-10 6 -10 13.5t10 12.5l51 29q10 6 23.5 6t23.5 -6l473 -266q10 -6 10 -14v0zM995 263q0 -7 -11 -13l-473 -266q-10 -6 -23.5 -6t-23.5 6l-51 29
q-10 5 -10 12.5t10 13.5l400 224l-400 225q-10 6 -10 13.5t10 12.5l51 29q10 6 23.5 6t23.5 -6l473 -266q11 -6 11 -14v0z" />
    <glyph glyph-name="tupian" unicode="&#xe666;" 
d="M842 749h-660q-39 0 -66.5 -27.5t-27.5 -66.5v-711q0 -39 27.5 -66.5t66.5 -27.5h660q39 0 67 27.5t28 66.5v711q0 39 -28 66.5t-67 27.5zM865 -56q0 -9 -6.5 -16t-16.5 -7h-660q-9 0 -16 7t-7 16v711q0 10 7 16.5t16 6.5h660q10 0 16.5 -6.5t6.5 -16.5v-711zM455.5 428
q32.5 0 55.5 23.5t23 56t-23 55.5t-55.5 23t-55.5 -23t-23 -55.5t23 -56t55.5 -23.5zM642 375q-9 17 -27.5 17t-27.5 -17l-130 -243l-63 92q-8 11 -22 11t-22 -11l-159 -231q-9 -13 -1.5 -27t23.5 -14h199h118h288q17 0 26 15t1 30zM388 5h-124l108 156l56 -82z" />
    <glyph glyph-name="tianchengzuo" unicode="&#xe663;" 
d="M732 431q5 1 9 2q20 5 14 37q-1 2 -1 3q0 -5 -4.5 -14t-13 -14t-20.5 8q-23 25 -42 40.5t-36 20.5t-21.5 6t-16.5 1q-7 0 -30.5 -7.5t-29.5 -4.5q-5 1 -8.5 10t-4.5 17l-1 8h11v17l-11 6v33h-13l-3 -34l-9 -6l-2 -16h14q0 -7 -2.5 -16t-5.5 -15l-3 -5q-52 16 -85 11
q-17 -3 -34 -14.5t-36 -29.5t-25 -23q-12 -7 -19.5 -2.5t-10.5 13.5l-3 10q-6 -11 0.5 -27.5t20.5 -18.5l-119 -255h-1q17 -25 51.5 -44t81.5 -20q19 -1 38 5.5t32 16t23.5 19.5t15.5 16.5l5 6.5l-116 256q4 2 7 5q5 3 24.5 21.5t36.5 25.5t44 7q17 0 30 -5.5t20 -12.5
t11.5 -14.5t5.5 -13.5l1 -5l-8 -286q1 -3 3 -6t4.5 -5t4.5 -4t4.5 -3.5t4 -2.5t2.5 -1l2 -1l-9 -1l-23 -3q-5 -30 -19.5 -60t-22 -39.5t-12.5 -14.5v0q18 -13 34.5 -17.5t55.5 -6.5q24 -1 45.5 4.5t31 11.5l9.5 6l-18 29l-24 -9q-26 -9 -42.5 -6t-24 8t-7.5 7
q17 -5 36.5 -1.5t35.5 9.5t15 9q-1 1 -4 10l-5.5 16.5l-2.5 7.5l-12 -8q-11 -9 -35 0q-9 4 -1 5q7 1 17 7t16 11l6 6q-2 3 -6.5 23.5t-8.5 39l-4 18.5q1 234 1 247q0 11 15.5 29t35.5 23q42 10 81 -28q28 -27 53 -29l-121 -259h-1q17 -25 51.5 -44t81.5 -20q19 -1 38 5.5
t32 16t23.5 19.5t15.5 16.5l5 6.5zM202 172l110 241l-2 -241h-108zM319 172v239l105 -239h-105zM615 172l110 241l-2 -241h-108zM732 172v239l105 -239h-105z" />
    <glyph glyph-name="moban" unicode="&#xe627;" 
d="M64 748v-256h384v256h-384zM384 556h-256v128h256v-128zM64 428v-192h384v192h-384zM384 300h-256v64h256v-64zM512 748v-512h448v512h-448zM896 300h-320v384h320v-384zM64 172v-320h896v320h-896zM896 -84h-768v192h768v-192z" />
    <glyph glyph-name="qq" unicode="&#xe600;" 
d="M981 118q-6 34 -20 68t-27.5 56.5t-30 42.5t-22.5 26.5t-10 9.5v0q3 33 1 56.5t-7.5 38t-11.5 23t-11 10.5l-5 3q-2 71 -20.5 127.5t-44 91t-60.5 59.5t-64 36.5t-60.5 17.5t-43.5 6.5t-19 0.5q-8 0 -19.5 -0.5t-43 -6.5t-60.5 -17.5t-64 -36.5t-61 -59.5t-44.5 -91
t-20.5 -127.5q-2 0 -4.5 -2.5t-10.5 -11.5t-12 -22.5t-8 -38t1 -56.5l-9 -9t-22.5 -26.5t-30.5 -43t-27.5 -56.5t-19.5 -68q-1 -4 -1 -11.5t1 -25.5t4 -31t10 -23.5t17.5 -9t28.5 19.5t41 55q26 -69 72 -131q-4 -1 -9.5 -3.5t-19.5 -11t-24 -19.5t-17.5 -29t-5.5 -38
q0 -4 1 -9.5t10 -19t25.5 -24t53.5 -18t87 -6.5q5 1 14 2t33 5.5t44 11t41.5 18.5t32.5 27h17v0h17q16 -24 57.5 -40t74.5 -20l32 -4q51 -1 87.5 6t53 18.5t26 23.5t10.5 20l1 9q2 20 -5.5 38t-19 29t-23 19.5t-20.5 11.5l-8 3q20 28 38 60.5t26 51.5l7 19q23 -37 41 -55.5
t28.5 -18.5t18 8.5t10 24t4 30.5t0.5 26v11z" />
    <glyph glyph-name="gou" unicode="&#xe613;" 
d="M409 -131q50 91 198 232.5t280 230.5l68 41q41 22 68 28q-19 42 -23.5 87.5t0.5 78.5t13 82.5t11 81.5v0q-89 -45 -190 -131l-71 -64q-91 -87 -183.5 -195.5t-139.5 -174.5l-47 -65l-120 232l-273 -132q86 -31 203 -126.5t206 -205.5v0z" />
    <glyph glyph-name="qingxie" unicode="&#xe63f;" 
d="M699 768q26 0 44 -18.5t18 -44.5t-18 -44t-44 -18h-63l-56 -685h56q26 0 44.5 -18.5t18.5 -44.5t-18.5 -44.5t-44.5 -18.5h-311q-26 0 -44 18.5t-18 44.5t18 44.5t44 18.5h67l57 685h-62q-25 0 -43.5 18t-18.5 44t18.5 44.5t43.5 18.5h312v0zM699 768z" />
    <glyph glyph-name="sina" unicode="&#xe601;" 
d="M739 320q-8 3 -11 4.5t-6 6.5t2 12q23 58 0 90q-23 31 -77 31t-124 -30h-1q-23 -9 -22 5q0 3 1 6q23 73 -10 105q-37 38 -124 4t-172 -119q-64 -65 -99.5 -130.5t-35.5 -123.5q0 -71 56.5 -127.5t142 -84.5t180.5 -28q88 0 167 24t130.5 61.5t81.5 82.5t30 88
q0 47 -32 78t-77 45zM454 -20q-72 -8 -145.5 19.5t-121 74.5t-52.5 95t31 91t99.5 69.5t137.5 30.5q85 5 161.5 -17.5t122.5 -64t51 -89.5t-35 -94t-107.5 -77t-141.5 -38zM901.5 593.5q-43.5 48.5 -104.5 67.5t-123 6v0q-14 -3 -21.5 -15t-4.5 -26t15 -21.5t26 -5.5
q43 10 86.5 -3.5t74.5 -48t40.5 -80t-4.5 -86.5v0q-5 -14 1.5 -26.5t20.5 -17t26.5 2t17.5 20.5v0q19 58 6 121.5t-56.5 112zM810.5 511.5q-21.5 23.5 -51 33t-59.5 2.5q-12 -2 -19 -12.5t-4.5 -22.5t13 -19t22.5 -4v0q32 7 54 -17.5t12 -55.5v0q-4 -12 2 -23t17.5 -14.5
t22.5 2t15 16.5q9 29 3 60t-27.5 54.5zM455 274q-54 14 -107 -9t-76 -70q-24 -48 -3.5 -94.5t74.5 -63.5q56 -18 113 6t80 76q22 50 -2 95.5t-79 59.5zM400 111q-11 -17 -31 -23.5t-37 1.5q-18 7 -22.5 25t6.5 34.5t30.5 23t37.5 -0.5q17 -7 22 -24.5t-6 -35.5zM448 172.5
q-4 -6.5 -11.5 -9.5t-14.5 0t-8.5 9.5t2 13t11 9t14 0t9 -9t-1.5 -13z" />
    <glyph glyph-name="gongju" unicode="&#xe64c;" 
d="M835 -70.5q10 -9.5 24 -9.5t23.5 9.5t9.5 23.5t-9.5 24t-23.5 10t-24 -10t-10 -24t10 -23.5zM930 25q30 -30 30 -72t-29.5 -71.5t-71.5 -29.5t-72 30l-348 348q-73 -32 -155 -17t-142 75q-52 52 -70.5 123t0.5 138q3 11 25.5 -7t54.5 -50t72.5 -58.5t80 -32t76.5 29.5
q35 37 29.5 76.5t-32 80t-58.5 72.5t-50 54.5t-7 25.5q67 19 138 0.5t123 -70.5q60 -60 75 -142t-17 -155z" />
    <glyph glyph-name="icon" unicode="&#xe616;" 
d="M621 403h-332v202h68q8 34 35.5 56t63 22t63 -22t35.5 -56h67v-202v0zM336 450h239v109h-65v23q0 23 -16 39t-38.5 16t-38.5 -16t-16 -39v-23h-65v-109v0zM682 -116h-441q-52 0 -89.5 37t-37.5 90v441q0 53 37.5 90t89.5 37h95v-129h239v129h107q53 0 90.5 -37t37.5 -90
v-441q0 -53 -37.5 -90t-90.5 -37v0zM241 533q-33 0 -56.5 -24t-23.5 -57v-441q0 -33 23.5 -57t56.5 -24h441q34 0 57.5 24t23.5 57v441q0 33 -23.5 57t-57.5 24h-61v-130h-332v130h-48v0zM449 39zM646 -20q10 23 22 44.5t25.5 40.5t20.5 26.5t10 8.5t12.5 2.5t12.5 1.5
q2 0 2 -2q0 -1 -0.5 -2t-4.5 -4q-19 -18 -42 -52.5t-38 -72.5q-6 -16 -8.5 -19t-14.5 -3q-9 0 -11 2t-7 10q-8 13 -20 25q-5 6 -5 9q0 4 6 8.5t10 4.5q5 0 13 -6t17 -22v0zM246 345h429v-62h-429v62zM239 236h430v-62h-430v62zM239 125h430v-62h-430v62z" />
    <glyph glyph-name="qq1" unicode="&#xe63d;" 
d="M512 812q-104 0 -199 -40.5t-163.5 -109t-109 -163.5t-40.5 -199t40.5 -199t109 -163.5t163.5 -109t199 -40.5t199 40.5t163.5 109t109 163.5t40.5 199t-40.5 199t-109 163.5t-163.5 109t-199 40.5zM794 140q-10 -8 -25.5 0.5t-32.5 31.5q-14 -38 -36 -71q51 -18 51 -47
q0 -25 -39 -43t-94 -18q-66 0 -106 24q-39 -24 -106 -24q-55 0 -93.5 18t-38.5 43q0 29 50 47q-21 32 -36 71q-16 -23 -31.5 -31.5t-25.5 -0.5q-14 13 -9.5 52.5t24.5 81.5q9 20 20 35q3 124 74.5 211t171.5 87v0q101 0 172.5 -87t74.5 -211q10 -15 19 -35
q20 -42 24.5 -81.5t-8.5 -52.5z" />
    <glyph glyph-name="guanbi" unicode="&#xe646;" 
d="M952 692q9 9 9 22.5t-9 22.5l-2 1q-9 10 -22.5 10t-22.5 -10l-370 -369q-9 -10 -22.5 -10t-22.5 10l-370 369q-9 10 -22.5 10t-22.5 -10l-1 -1q-10 -9 -10 -22.5t10 -22.5l369 -370q10 -9 10 -22.5t-10 -22.5l-369 -370q-10 -9 -10 -22.5t10 -22.5l1 -2q9 -9 22.5 -9
t22.5 9l370 370q9 9 22.5 9t22.5 -9l370 -370q9 -9 22.5 -9t22.5 9l2 2q9 9 9 22.5t-9 22.5l-370 370q-9 9 -9 22.5t9 22.5z" />
    <glyph glyph-name="guanbi1" unicode="&#xe647;" 
d="M512 806q-102 0 -195.5 -40t-161 -107.5t-107.5 -161t-40 -195.5t40 -195.5t107.5 -161t161 -107.5t195.5 -40t195.5 40t161 107.5t107.5 161t40 195.5t-40 195.5t-107.5 161t-161 107.5t-195.5 40zM650 270l131 -131q14 -14 14 -33.5t-14 -33.5l-37 -37
q-14 -14 -33.5 -14t-33.5 14l-131 131q-13 13 -33 13t-33 -13l-131 -131q-14 -14 -33.5 -14t-33.5 14l-37 37q-14 14 -14 33.5t14 33.5l131 131q13 13 13 33t-13 33l-131 131q-14 14 -14 33.5t14 33.5l37 37q14 14 33.5 14t33.5 -14l131 -131q13 -13 33 -13t33 13l131 131
q14 14 33.5 14t33.5 -14l37 -37q14 -14 14 -33.5t-14 -33.5l-131 -131q-13 -13 -13 -33t13 -33z" />
    <glyph glyph-name="xiangyou" unicode="&#xe638;" 
d="M284 -69q-14 -14 -14 -33t13.5 -32.5t32.5 -13.5t32 14l397 401q13 14 13 33t-13 33l-397 401q-13 14 -32 14t-32.5 -13.5t-13.5 -32.5t13 -33l351 -369l-350 -369v0v0zM284 -69z" />
    <glyph glyph-name="weixin" unicode="&#xe602;" 
d="M693 465q15 0 35 -2q-23 109 -127.5 181.5t-238.5 72.5q-98 0 -181 -40.5t-132 -111.5t-49 -156q0 -143 145 -245l-36 -109l127 64q6 -2 25 -5.5t27 -5t22.5 -4t26.5 -3t25 -0.5q16 0 34 1q-11 38 -11 76q0 119 89.5 203t218.5 84zM498 563q21 0 33.5 -12.5t12.5 -33
t-12.5 -33t-33.5 -12.5t-37.5 13t-16.5 32.5t16.5 32.5t37.5 13zM245 472q-22 0 -38.5 13t-16.5 32.5t16.5 32.5t38.5 13q20 0 32.5 -12.5t12.5 -33t-12.5 -33t-32.5 -12.5zM1024 182q0 71 -43 132t-113.5 96t-151.5 35q-129 0 -218.5 -77t-89.5 -186t89.5 -186t218.5 -77
q37 0 109 18l99 -54l-27 90q127 96 127 209zM616 228q-13 0 -24.5 11t-11.5 24.5t11.5 25t24.5 11.5q20 0 33 -11t13 -25.5t-13 -25t-33 -10.5zM815 228q-13 0 -24.5 11t-11.5 24.5t11.5 25t24.5 11.5q20 0 33 -11t13 -25.5t-13 -25t-33 -10.5z" />
    <glyph glyph-name="iconxiugai" unicode="&#xe60e;" 
d="M793 -75zM674 650l134 -135l-451 -450l-134 134zM197 173l134 -134l-183 -51zM756 732l-55 -55l134 -135l56 56q14 15 14 36t-14 36l-63 62q-15 15 -36 15t-36 -15zM813 -119q0 12 -8 20t-20 8h-638q-12 0 -20 -8t-8 -20t8 -20t20 -8h638q12 0 20 8t8 20v0z" />
    <glyph glyph-name="saomiao" unicode="&#xe664;" 
d="M276 430l13 -63l-218 -46l-14 62zM71 703l218 -47l-13 -63l-219 48zM960 608l-571 62l-5 -318l203 23l126 -466l-137 -5v-64h384l-125 562l125 14v192z" />
    <glyph glyph-name="dingdan" unicode="&#xe62a;" 
d="M844 752h-61q-13 0 -24 -7.5t-11 -19.5t11.5 -22.5t23.5 -10.5h61q26 0 43 -17t17 -43v-693q0 -27 -17 -43.5t-43 -16.5h-648q-29 0 -52.5 17t-23.5 43v693q0 26 17 43t43 17h76q23 0 23 33q0 27 -23 27h-76q-60 0 -90 -33.5t-30 -88.5v-685q0 -57 33.5 -91.5t93.5 -34.5
h650q62 0 94.5 32t32.5 94v685q0 54 -32 88t-88 34zM256 480.5q0 -12.5 9 -21.5t22 -9h452q12 0 21 9t9 21.5t-9 21.5t-21 9h-452q-13 0 -22 -9t-9 -21.5zM737 345h-450q-13 0 -22 -9t-9 -21.5t9 -22t22 -9.5h452q12 0 21 9.5t9 21.5q-1 13 -10 22t-22 9zM737 164h-450
q-13 0 -22 -9t-9 -21.5t9 -21.5t22 -9h452q12 0 21 9t9 22q-1 13 -10 21.5t-22 8.5zM408 676h210q18 0 31.5 16t13.5 37t-13.5 36.5t-32.5 15.5h-209q-19 0 -32.5 -15.5t-13.5 -36.5t13.5 -37t32.5 -16z" />
    <glyph glyph-name="caiwu" unicode="&#xe65c;" 
d="M509.5 471q-93.5 0 -173 -65t-126 -177t-46.5 -244q0 -89 11 -120l5 -13h659l5 13q11 31 11 119q0 132 -46.5 244.5t-126 177.5t-173 65zM811 -111h-603q-7 38 -7 96q0 121 41.5 225t112.5 164t154.5 60t154.5 -60.5t112 -164t41 -225.5q0 -58 -6 -95zM582 505l108 206
h-161l-25 -28l-58 65h-113l92 -243h157zM429 711l75 -84l41 46h83l-69 -130h-109l-63 168h42zM589.5 142q-22.5 21 -69.5 33v111q17 -1 31.5 -10.5t29.5 -29.5l19 11q-13 23 -32.5 35t-47.5 15v32h-19v-32q-41 -4 -63.5 -24t-22.5 -51q0 -30 20.5 -48.5t65.5 -29.5v-125
q-24 3 -41.5 15.5t-30.5 35.5l-19 -16q16 -26 39 -40t52 -16v-37h19v37q44 4 68 25.5t24 57.5q0 30 -22.5 51zM501 180q-33 8 -48 21t-15 33q0 23 17 38q17 14 46 15v-107zM570 47q-18 -16 -50 -19v119q37 -10 52.5 -24t15.5 -36q0 -24 -18 -40z" />
    <glyph glyph-name="delete" unicode="&#xe60b;" 
d="M973 687q11 0 18.5 7.5t7.5 18.5t-7.5 18.5t-18.5 7.5l-941 2q-10 0 -18 -8t-8 -19t8 -18.5t18 -7.5zM180 -96v-27h27l626 7h26v26v697q0 11 -7.5 18.5t-18.5 7.5t-18.5 -7.5t-7.5 -18.5v-697l26 27l-627 -7l27 -26v709q0 11 -7.5 19t-18.5 8t-19 -8t-8 -19v-709zM656 49
q0 -11 8 -18.5t19 -7.5t18.5 7.5t7.5 18.5v475q0 11 -7.5 18.5t-18.5 7.5t-19 -7.5t-8 -18.5v-475zM341 49q0 -11 8 -18.5t18.5 -7.5t18.5 7.5t8 18.5v475q0 11 -8 18.5t-18.5 7.5t-18.5 -7.5t-8 -18.5v-475zM499 49q0 -11 7.5 -18.5t18.5 -7.5t18.5 7.5t7.5 18.5v475
q0 11 -7.5 18.5t-18.5 7.5t-18.5 -7.5t-7.5 -18.5v-475zM392 779q0 11 7.5 19t18.5 8h205q11 0 18.5 -8t7.5 -19v-55h53v55q0 33 -23 56t-56 23h-205q-32 0 -55 -23t-23 -56v-48h52v48z" />
    <glyph glyph-name="edit" unicode="&#xe60c;" 
d="M34 665h-25v-25v-598q0 -52 36.5 -89t88.5 -37h794h25v25v484q0 10 -7.5 17.5t-17.5 7.5t-17.5 -7.5t-7.5 -17.5v-484l25 25h-794q-31 0 -53 22.5t-22 53.5v598l-25 -25h565q10 0 17.5 7t7.5 17.5t-7.5 18t-17.5 7.5h-565zM437 302l-5 -6v-9l-4 -149l-1 -36l34 12l144 51
l7 3l4 6l387 511l16 20l-21 16l-129 97l-19 15l-15 -20zM840 778l128 -98l-4 36l-387 -511l11 8l-143 -52l33 -24l4 149l-6 -15l398 511zM891 585l29 41l-112 82l-29 -41z" />
    <glyph glyph-name="jiantou" unicode="&#xe61d;" 
d="M300 748l456 -447l-456 -446l-35 34l421 412l-421 412z" />
    <glyph glyph-name="jiantou1" unicode="&#xe61e;" 
d="M273 300l432 431l34 -34l-431 -431zM705 -130l-432 431l35 34l431 -431z" />
    <glyph glyph-name="tuichu1" unicode="&#xe65e;" 
d="M496 -127q-83 0 -160 32q-73 31 -130 88t-89 131q-32 76 -32 160q0 101 47 191q46 86 125 143q11 8 24 5.5t21 -13t6 -24t-13 -20.5q-68 -49 -106 -121q-40 -76 -40 -161q0 -144 102 -245.5t245.5 -101.5t245 101.5t101.5 245.5q0 86 -39 161q-39 72 -106 121
q-11 7 -13 20.5t5.5 24t20.5 13t24 -5.5q80 -57 125 -143q48 -90 48 -191q0 -84 -33 -160q-31 -74 -88 -131t-131 -88q-76 -32 -160 -32v0zM506 319q-13 0 -22.5 9.5t-9.5 22.5v381q0 13 9.5 22.5t22.5 9.5t22.5 -9.5t9.5 -22.5v-381q0 -13 -9.5 -22.5t-22.5 -9.5v0z
M506 319z" />
    <glyph glyph-name="fanhui" unicode="&#xe63b;" 
d="M623 527h-175v142l-384 -192l384 -192v142h189q225 0 225 -188q0 -195 -232 -195h-442v-100h446q317 0 317 285q0 298 -328 298z" />
    <glyph glyph-name="wenjianjia" unicode="&#xe619;" 
d="M842 -75h-660q-38 0 -64.5 26.5t-26.5 64.5v341v159v68q0 38 26.5 64.5t64.5 26.5h228q31 0 55.5 -19t31.5 -49h345q38 0 64.5 -26.5t26.5 -64.5v-500q0 -38 -26.5 -64.5t-64.5 -26.5zM501 562h-69v22q0 19 -13 32.5t-32 13.5h-205q-19 0 -32 -13.5t-13 -32.5v-22v0v-273
v0v-273q0 -19 13 -32.5t32 -13.5h660q19 0 32 13.5t13 32.5v500q0 19 -13 32.5t-32 13.5h-341v0z" />
    <glyph glyph-name="dui" unicode="&#xe649;" 
d="M512 800q-104 0 -199 -40.5t-163.5 -109t-109 -163.5t-40.5 -199t40.5 -199t109 -163.5t163.5 -109t199 -40.5t199 40.5t163.5 109t109 163.5t40.5 199t-40.5 199t-109 163.5t-163.5 109t-199 40.5zM815 481l-346 -461q-17 -23 -46 -25h-4q-26 0 -44 18l-193 189
q-18 18 -18.5 44t17.5 44.5t44 19t45 -18.5l142 -139l303 404q16 21 41.5 24.5t46.5 -12t24.5 -41t-12.5 -46.5z" />
    <glyph glyph-name="huiyuan" unicode="&#xe62b;" 
d="M604 -161h-184q-57 0 -85 0.5t-72 3t-65.5 8t-45.5 15.5t-34 26t-10 38v18q0 127 91.5 217t220.5 90h184q129 0 220.5 -90t91.5 -217v-18q0 -17 -6 -30t-20.5 -22.5t-28 -16t-40 -11t-45 -6.5t-54 -3t-56.5 -1.5t-62 -0.5v0v0zM418 204q-108 0 -185 -75.5t-77 -182.5v-18
q0 -13 23 -21t70 -11.5t79.5 -4t89.5 -0.5h188q50 0 82 0.5t80.5 3.5t74 11.5t25.5 21.5v18q0 107 -77 182.5t-185 75.5h-188v0v0zM503 273q-103 0 -175.5 71.5t-72.5 172.5t72.5 172.5t175 71.5t175 -71.5t72.5 -172.5t-72.5 -172.5t-174.5 -71.5v0v0zM306 518
q0 -80 58 -136.5t139 -56.5t138.5 56.5t57.5 136t-57.5 136t-138.5 56.5t-139 -56.5t-58 -135.5v0v0zM306 518z" />
    <glyph glyph-name="tongbu3" unicode="&#xe628;" 
d="M912 362h-1q-39 52 -100 69l-3 1l-4 1l-2 4l-1 2q-35 91 -113.5 145t-174.5 54q-98 0 -178 -56q-78 -55 -113 -143l-1 -2l-1 -4l-4 -1l-3 -1q-61 -17 -100 -69q-40 -53 -40 -118q0 -81 58.5 -138.5t139.5 -57.5q12 0 21 8.5t9 19.5q0 13 -8 21t-22 8q-58 0 -99 40.5
t-41 98.5q0 51 29 87q38 51 101 55q10 35 29 66l3 6v0v0l1 1q33 56 91 89q59 34 128 34q66 0 123 -32q56 -32 90 -85q5 -6 9 -13l6 -9v-1v-1q14 -25 22 -52q59 -5 95 -51q37 -39 37 -94q0 -58 -41.5 -98.5t-100.5 -40.5q-12 0 -20 -8q-9 -8 -9 -21q0 -10 9 -19t20 -9
q83 0 140 58q58 57 58 138q0 66 -39 118zM632 38h-1q-10 0 -20 -9l-59 -64l-15 -17v22v47v0v0v0v211v22l15 -16l59 -65q10 -9 18 -9q11 0 19.5 7.5t8.5 18t-8 17.5v0v1v0l-117 130q-10 8 -20 8q-13 0 -20 -7l-119 -130q-6 -11 -6 -20q0 -10 7.5 -17.5t17.5 -7.5q11 0 20 9
l59 65l15 16v-22v-47v0v0v0v-211v-22l-15 17l-59 64q-9 9 -17 9q-12 0 -20 -7t-8 -17.5t7 -18.5h1v0v0l116 -131q11 -8 21 -8q12 0 20 8l118 130q7 11 7 19q0 10 -8 17.5t-17 7.5z" />
    <glyph glyph-name="usb" unicode="&#xe621;" 
d="M288 372v0v0zM768 555q0 27 -19 46t-45.5 19t-45 -19t-18.5 -45q0 -38 33 -57q4 -5 4 -12v-1q-2 -47 -14 -83q-6 -19 -44.5 -49.5t-58.5 -34.5q-9 -2 -12.5 2t-3.5 18v281q0 6 4 10v0q29 19 29 53q0 27 -19 46t-45.5 19t-45.5 -19t-19 -46q0 -35 29 -54h1l0.5 -0.5
t1.5 -0.5q6 -4 6 -8v-393q0 -12 -3.5 -18t-13.5 -6q-13 1 -51 31t-51 58q-14 28 -14 56v0v1q0 22 6 27q26 19 26 51q0 27 -19 46t-45.5 19t-45.5 -19t-19 -45q0 -37 32 -56q6 -4 8 -21q4 -46 18 -80q20 -50 79 -90q2 -2 11 -8t11.5 -8t9.5 -7t10 -7.5t8 -6.5t8.5 -8t5.5 -8
q1 -1 4 -5.5t3.5 -5.5t3 -4.5t3 -4.5l2 -4t2 -5t1.5 -5t1 -6t0.5 -6.5t0.5 -7.5v0q0 -12 -3.5 -19.5t-5 -8.5t-10.5 -8q-21 -13 -34 -35.5t-13 -48.5v-1v-1q0 -41 29.5 -70.5t70.5 -29.5t70 29.5t29 70.5q0 40 -27 69q-9 10 -19 16q-21 14 -21 36v49q0 68 22 106
q20 34 71 69q59 39 79 90q14 35 18 102q0 10 6 13v0q28 20 28 53zM320.5 395q-13.5 0 -23 9.5t-9.5 23t9.5 23t23 9.5t22.5 -9.5t9 -23t-9 -23t-22.5 -9.5zM512 651q-13 0 -22.5 9.5t-9.5 23t9.5 23t22.5 9.5t22.5 -9.5t9.5 -23t-9.5 -23t-22.5 -9.5zM703.5 523
q-13.5 0 -22.5 9.5t-9 23t9 23t22.5 9.5t23 -9.5t9.5 -23t-9.5 -23t-23 -9.5z" />
    <glyph glyph-name="xingzhuang13" unicode="&#xe632;" 
d="M705 453h-413v249h82q11 44 46.5 77t79.5 33t78 -32.5t45 -77.5h82v-250v1v0v0zM650 508v140h-83v34q0 30 -19.5 52.5t-47.5 22.5t-50 -23t-22 -52v-34h-84l1 -140v0h305zM793 -212h-562q-67 0 -114.5 48t-47.5 115v565q0 67 47.5 113t114.5 46h114v-167h306l-1 167h143
q67 0 114.5 -46t47.5 -113v-565q0 -67 -47.5 -115t-114.5 -48v0v0zM231 619q-43 0 -76 -30.5t-33 -72.5v-565q0 -42 33.5 -74.5t75.5 -32.5h562q42 0 73.5 32t31.5 75v565q0 42 -31 72.5t-74 30.5h-88v-166h-413v166h-61v0v0zM495 -13q-10 0 -18 7l-165 133q-10 8 -11.5 20
t6.5 22t20 11.5t22 -6.5l139 -112l214 337q6 11 18 13.5t22.5 -4t13.5 -18.5t-4 -23l-231 -366q-8 -11 -21 -13q-2 -1 -5 -1v0v0z" />
    <glyph glyph-name="jingxuan" unicode="&#xe617;" 
d="M873 754h-722q-38 0 -65.5 -27.5t-27.5 -65.5v-722q0 -38 27.5 -65.5t65.5 -27.5h722q38 0 65.5 27.5t27.5 65.5v722q0 38 -27.5 65.5t-65.5 27.5zM791 496l-2 -1l-1 -2q-14 -103 -93.5 -171.5t-182.5 -68.5t-182.5 68.5t-93.5 171.5l-1 2l-2 1q-22 13 -22 37
q0 18 13 30.5t31 12.5t30.5 -12.5t12.5 -30.5q0 -20 -16 -33l-2 -2l1 -2q13 -86 78.5 -142t152.5 -56t152.5 56t78.5 142l1 2l-2 2q-16 13 -16 33q0 18 12.5 30.5t30.5 12.5v0v0v0q18 0 31 -12.5t13 -30.5q0 -24 -22 -37z" />
    <glyph glyph-name="gengxin" unicode="&#xe624;" 
d="M874 236v0q-8 0 -14 -5.5t-6 -13.5q-5 -101 -58 -186t-140.5 -134t-190.5 -49q-105 0 -194.5 52t-141.5 141.5t-52 194.5q0 106 52 195.5t141.5 141.5t194.5 52v-131q0 -9 8.5 -13.5t16.5 1.5l190 150q6 5 6 12t-6 12l-190 150q-8 6 -16.5 1.5t-8.5 -13.5v-128
q-87 0 -167 -34q-77 -32 -136.5 -91.5t-91.5 -136.5q-34 -80 -34 -167.5t34 -167.5q32 -77 91.5 -136.5t136.5 -91.5q80 -34 167.5 -34t167.5 34q77 32 136.5 91.5t91.5 136.5q30 70 33 146q1 9 -5 15t-15 6zM512 643z" />
    <glyph glyph-name="bangding" unicode="&#xe634;" 
d="M576 298zM875.5 662q-42.5 42 -102.5 42v0q-48 0 -86 -28l-1 -1l-162 -162v0q-43 -44 -43 -101q0 -30 12 -58v0v0v0v0q1 -3 3 -5l36 18q-1 2 -1 3l-19 -8l19 8q-9 20 -9 42q0 40 31 72l160 160q27 19 60 20v0q43 0 73.5 -30.5t30.5 -73.5q0 -33 -20 -60l-148 -149l-1 -1
q-31 -41 -83 -41v0q-21 0 -41 8l-16 -37q27 -12 57 -12v0q35 0 66 15q29 15 49 41l148 149l1 1q29 38 29 86q0 60 -42.5 102zM255 -103q-60 0 -102.5 42t-42.5 102q0 57 43 100v1l162 161l1 1q39 29 87 29v0q30 0 57 -12l-16 -37q-20 8 -41 8v0q-34 0 -61 -20l-160 -159
q-31 -32 -31 -72q0 -43 30.5 -73.5t73.5 -30.5v0q51 1 82 42l1 1l148 148q20 28 20 61q0 22 -9 41l38 17q12 -28 12 -58q0 -48 -29 -86l-1 -1l-148 -149q-20 -26 -49 -41q-31 -15 -65 -15v0zM611 426l29 -29l-223 -222l-29 29z" />
    <glyph glyph-name="jiaruheimingdan" unicode="&#xe660;" 
d="M451 410q79 0 135 50.5t56 122t-56 122t-135 50.5t-135 -50.5t-56 -122t56 -122t135 -50.5zM668 289q-37 34 -99.5 52t-121.5 20q-102 3 -189.5 -61.5t-138 -176t-50.5 -241.5v-26h449q-31 31 -37 75q0 44 2 75t8 68t18.5 64.5t33 56t52 51.5t73.5 43zM761.5 230
q-85.5 0 -145.5 -60t-60 -145.5t60 -146t145.5 -60.5t146 60.5t60.5 146t-60.5 145.5t-146 60zM762 -123q-61 0 -104 43t-43 104q0 49 30 89l205 -206q-40 -30 -88 -30zM891 -44l-198 198q33 18 69 18q61 0 104 -43.5t43 -104.5q0 -35 -18 -68z" />
    <glyph glyph-name="jiekou" unicode="&#xe622;" 
d="M777 -28h-89q-13 0 -21.5 8.5t-8.5 20.5v59q0 12 8.5 21t21.5 9h59v176h-208v-176h30q12 0 20.5 -9t8.5 -21v-59q0 -12 -8.5 -20.5t-20.5 -8.5h-90q-12 0 -20.5 8.5t-8.5 20.5v59q0 12 8.5 21t20.5 9h30v176h-208v-176h59q13 0 21.5 -9t8.5 -21v-59q0 -12 -8.5 -20.5
t-21.5 -8.5h-89q-12 0 -21 8.5t-9 20.5v59q0 12 9 21t21 9v176v29h30h208v206h-30q-12 0 -20.5 8.5t-8.5 20.5v59q0 12 8.5 21t20.5 9h90q12 0 20.5 -9t8.5 -21v-59q0 -12 -8.5 -20.5t-20.5 -8.5h-30v-206h208h30v-29v-176q12 0 21 -9t9 -21v-59q0 -12 -9 -20.5t-21 -8.5z
" />
    <glyph glyph-name="jinzhi" unicode="&#xe61c;" 
d="M512 812q-138 0 -256 -69t-187 -187t-69 -256t69 -256t187 -187t256 -69t256 69t187 187t69 256t-69 256t-187 187t-256 69zM217.5 5.5q-57.5 57.5 -89.5 135t-32 159.5q0 70 24 137.5t67 122.5l583 -587q-115 -89 -258 -89q-82 0 -159.5 32t-135 89.5zM837 40l-583 587
q115 89 258 89q82 0 159.5 -32t135 -89.5t89.5 -135t32 -159.5q0 -70 -24 -137.5t-67 -122.5z" />
    <glyph glyph-name="chacha" unicode="&#xe614;" 
d="M959 -62l-85 -85l-362 362l-362 -362l-85 85l362 362l-362 362l85 85l362 -362l362 362l85 -85l-362 -362z" />
    <glyph glyph-name="yichu" unicode="&#xe661;" 
d="M803.5 461q-117.5 0 -149.5 -1q-6 0 -5 6v61q-1 6 5 6h299q6 0 6 -6v-61q0 -6 -6 -6q-32 1 -149.5 1zM760 -38q2 67 -11 117q-44 162 -191 236q-13 6 -36 14q16 14 23 23q73 95 22 202q-33 68 -105.5 90t-136.5 -18q-79 -48 -86 -142q-7 -90 61 -152q2 -2 2 -3l-3 -1
q-175 -68 -224 -253q-12 -45 -10 -114q0 -6 6 -6h683h2q5 -1 4 4v3zM298 440q-11 42 7.5 82t56.5 59q43 21 88.5 5t67.5 -60q25 -51 3 -104t-75 -69q-17 -6 -31 -5q-42 0 -74.5 25.5t-42.5 66.5zM700 13h-4h-283h-286q-5 0 -5 6q11 97 72 168q73 84 177 99q145 20 249 -87
q72 -74 83 -182q0 -4 -3 -4z" />
    <glyph glyph-name="quxiaodingdan" unicode="&#xe633;" 
d="M606 -118h-406q-10 0 -19 9t-9 18v786q0 9 9 18t19 9h622q9 0 18.5 -11t9.5 -22v-534q0 -6 3.5 -10t9.5 -4t10 4t4 10v534q0 21 -17 40.5t-38 19.5h-622q-21 0 -38 -17t-17 -37v-786q0 -21 17 -37.5t38 -16.5h406q5 0 9 4t4 9.5t-4 9.5t-9 4zM728 397h-434q-5 0 -9 -4
t-4 -9.5t4 -9.5t9 -4h434q5 0 9 4t4 9.5t-4 9.5t-9 4zM741 207q0 6 -4 10t-9 4h-434q-5 0 -9 -4t-4 -10t4 -9.5t9 -3.5h434q5 0 9 3.5t4 9.5zM294 58q-5 0 -9 -4t-4 -9.5t4 -9.5t9 -4h231q5 0 9 4t4 9.5t-4 9.5t-9 4h-231zM728 559h-434q-5 0 -9 -4t-4 -9.5t4 -9.5t9 -4h434
q5 0 9 4t4 9.5t-4 9.5t-9 4zM859 -81l-58 59l58 58q10 10 0.5 19.5t-19.5 0.5l-58 -59l-57 57q-10 10 -19.5 0t0.5 -19l56 -57l-57 -57q-9 -10 0.5 -19.5t18.5 0.5l58 57l58 -59q10 -9 19.5 0.5t-0.5 18.5v0z" />
    <glyph glyph-name="dingdan1" unicode="&#xe618;" 
d="M864 628h-5h-81v108h-55h-528h-52v-55v-654v-54h43h9h51v-109h635v54v654v56h-17zM431 627h213q11 0 18.5 -8t7.5 -19.5t-7.5 -19.5t-18.5 -8h-213q-11 0 -19 8t-8 19.5t8 19.5t19 8zM272 463h372q11 0 18.5 -8t7.5 -19t-7.5 -19t-18.5 -8h-372q-11 0 -18.5 8t-7.5 19
t7.5 19t18.5 8zM272 300h372q11 0 18.5 -8t7.5 -19.5t-7.5 -19.5t-18.5 -8h-372q-11 0 -18.5 8t-7.5 19.5t7.5 19.5t18.5 8zM246 109q0 11 7.5 19t18.5 8h372q11 0 18.5 -8t7.5 -19t-7.5 -19t-18.5 -8h-372q-11 0 -18.5 8t-7.5 19zM829 -82h-528v55h422h9h46v599h51v-654z
" />
    <glyph glyph-name="wenjianjia1" unicode="&#xe61a;" 
d="M876 564h-336l-28 41q-3 7 -10.5 21t-10 18.5t-8.5 14t-10 12.5t-10.5 7.5t-14 6t-16.5 1.5h-284q-33 0 -56.5 -24t-23.5 -57v-121v-41v-445q0 -33 23.5 -57t56.5 -24h728q34 0 57.5 24t23.5 57v486q0 33 -23.5 56.5t-57.5 23.5z" />
    <glyph glyph-name="bofang" unicode="&#xe61b;" 
d="M263 -193l570 455q16 12 16 31.5t-15 32.5l-562 464q-20 16 -44 5t-24 -37l-8 -919q0 -26 23.5 -37.5t43.5 5.5v0z" />
    <glyph glyph-name="jiantoushang" unicode="&#xe608;" 
d="M927 200l-417 407l-415 -407l37 -38l378 371l380 -371z" />
    <glyph glyph-name="zhixingjihua" unicode="&#xe63c;" horiz-adv-x="1029" 
d="M96 -128q-13 0 -22.5 9.5t-9.5 22.5v349v1v502v2q6 52 33 76l1 2l2 1q82 59 185 59v0q36 0 113 -22l1 -1h1q15 -6 58.5 -21t122.5 -35.5t124 -20.5q91 0 227 66l1 1l2 1q31 10 56 -4q27 -16 33 -49l1 -3l3 -441q2 -19 -2 -38q-9 -49 -48 -68q-118 -56 -258 -56
q-161 0 -336 64q-66 24 -122 24h-2q-52 2 -101 -29q-17 -11 -31 -24v-336q0 -13 -9.5 -22.5t-22.5 -9.5zM262 357q67 0 143 -28q165 -59 315 -59q126 0 230 49q8 4 11.5 14.5t3 18t-0.5 9.5v2v2l-3 436q-1 2 -2 3h-2q-147 -72 -252 -72q-49 0 -131 20.5t-123.5 34.5
t-71.5 25q-68 20 -94 20q-81 0 -146 -45q-7 -10 -11 -34v-433q65 40 134 37z" />
    <glyph glyph-name="zhuan" unicode="&#xe629;" horiz-adv-x="1025" 
d="M503.5 -120q-102.5 0 -196.5 40q-90 38 -159.5 107.5t-107.5 160.5q-40 93 -40 195.5t40 196.5q38 90 107.5 159.5t159.5 108.5q94 39 196.5 39t195.5 -39q91 -39 160.5 -108.5t107.5 -159.5q40 -94 40 -196.5t-40 -195.5q-38 -91 -107.5 -160.5t-160.5 -107.5
q-93 -40 -195.5 -40zM503.5 826q-89.5 0 -171.5 -35t-141 -94.5t-94.5 -141.5t-35.5 -171.5t35.5 -171.5t94.5 -141t141 -94t171.5 -35t171.5 35t141 94t94 141t35 171.5t-35 171.5t-94 141.5t-141 94.5t-171.5 35zM296 402h67v108h40v-108h75v-37h-75v-75q43 6 86 13
l-4 -40q-40 -6 -82 -12v-125h-40v119l-120 -18l-6 42q60 7 126 16v80h-113v36q29 62 54 143h-60v38h72q12 41 23 88l45 -9q-12 -40 -25 -79h119v-38h-131q-25 -73 -51 -142zM505 251l25 33q46 -29 90 -58l85 99h-190v38q11 33 21 71h-62v37h73q9 35 18 73h-65v37h74
q10 40 20 84h42q-9 -43 -19 -84h147v-37h-156q-10 -38 -19 -73h195v-37h-205q-10 -37 -20 -72h199v-39l-104 -119q33 -22 65 -44l-29 -36q-89 66 -185 127z" />
    <glyph glyph-name="kucunliang" unicode="&#xe60f;" 
d="M1008 521l-413 292q-48 34 -83 34t-83 -34l-413 -292q-10 -5 -12.5 -13.5t6.5 -18.5q12 -13 19 -13q12 0 12 7l39 25v-611q0 -9 7.5 -17t17.5 -8q9 0 17 11t8 21v642l331 229q34 24 54.5 24t53.5 -24l325 -229v-642q0 -10 8 -18t17.5 -8t17 8t7.5 18v604l39 -25
q23 -12 31 6q9 10 6.5 18.5t-12.5 13.5zM213 444h140v-152h-140v152zM213 247h140v-152h-140v152zM213 50h140v-153h-140v153zM442 247h140v-152h-140v152zM442 50h140v-153h-140v153zM677 50h140v-153h-140v153z" />
    <glyph glyph-name="cun" unicode="&#xe62c;" 
d="M510 896q-164 0 -297.5 -95.5t-186.5 -250.5l69 -24q46 133 160.5 215t254.5 82q162 0 284.5 -105t148.5 -262l-63 42l-40 -61l126 -83q9 -7 20 -7q9 0 17 5q19 10 19 32q0 104 -40.5 199t-109 163.5t-163.5 109t-199 40.5zM512 -55q-162 0 -284.5 105t-148.5 262l63 -42
l41 61l-126 83q-18 13 -37.5 2.5t-19.5 -32.5q0 -104 40.5 -199t109 -163.5t163.5 -109t199 -40.5q164 0 298 95.5t187 250.5l-70 24q-45 -133 -159.5 -215t-255.5 -82zM249 546v57h156q5 13 12 31q7 21 9 31l72 -7l-22 -55h327v-57h-353q-31 -64 -71 -123v-325h-64v242
q-22 -24 -59 -64q-5 11 -12 33q-10 24 -14 33q92 93 147 204h-128zM405 276v57h185v35l92 65h-239v54h332v-57l-119 -83v-14h152v-57h-152v-97q3 -76 -78 -74q-36 -2 -88 -2q-2 7 -4 19q-5 28 -10 43q34 -3 76 -3q40 -2 38 33v81h-185z" />
    <glyph glyph-name="xiala" unicode="&#xe644;" 
d="M1024 896v-1024h-1024z" />
    <glyph glyph-name="baobiao" unicode="&#xe62d;" 
d="M978 40h-870q-13 0 -22 8.5t-9 20.5v688q0 12 -9 20t-22 8t-22 -8t-9 -20v-717q0 -24 18 -40.5t44 -16.5h901q13 0 22 8t9 20t-9 20.5t-22 8.5v0zM978 40zM170 269h62q18 0 27 14l66 97l94 -195q7 -13 21 -16q12 -3 23 2.5t15 16.5l127 385l93 -281q2 -10 11 -16.5
t20 -6.5h155q4 0 8 1q17 -29 54 -29q26 0 44 16.5t18 40.5t-18 40.5t-44 16.5q-37 0 -54 -29q-4 1 -8 1h-132l-117 352q-4 11 -15 17t-24 2q-8 -2 -14 -8q-4 -5 -6 -11l-133 -401l-84 174q-2 5 -7 9v0.5v0.5h-1q-15 14 -34 6q-10 -4 -15 -13l-86 -128h-46q-13 0 -22 -8.5
t-9 -20.5t9 -20.5t22 -8.5v0zM170 269z" />
    <glyph glyph-name="dui1" unicode="&#xe64a;" horiz-adv-x="1358" 
d="M1297 652q40 40 42 101q2 62 -38 103t-98 40q-59 -2 -99 -42l-631 -648l-217 220q-40 42 -98 43t-98 -40t-42 -98q-1 -56 39 -97l311 -322q41 -41 105 -40q66 2 105 42l-8 -9l727 747v0z" />
    <glyph glyph-name="jiaoyimimazhongzhi-copy" unicode="&#xe620;" 
d="M913 310l105 187l-85 -1q-40 156 -168 257t-291 101h-3q-95 0 -181.5 -37t-153.5 -105t-102.5 -155.5t-35 -183.5t37 -183.5t104.5 -154.5q67 -67 153 -103t180 -36h3q114 1 216 54.5t168 147.5l-26 19q-62 -88 -157 -137.5t-201 -50.5h-3q-87 0 -167.5 33.5t-142.5 95.5
q-63 63 -97 144t-34.5 170.5t32.5 171t95 145.5t142.5 98t169.5 34h3q150 0 268 -91.5t157 -233.5l-94 -1zM291 398l1 -233q0 -9 7 -16t16 -7h1l318 2q10 0 17 7t6 16l-1 233q0 10 -7 17t-16 7h-32v55q0 54 -38 91.5t-91 37.5t-90.5 -38.5t-36.5 -91.5v-56h-31
q-10 0 -16.5 -7t-6.5 -17zM473 575q39 0 67 -28t29 -68v-56l-191 -1l-1 56q0 40 28 68.5t68 28.5zM624 391l1 -215l-301 -1l-1 214z" />
    <glyph glyph-name="zhongzhimima" unicode="&#xe61f;" 
d="M636 448q28 0 48 -21.5t20 -52.5v-172q0 -31 -20 -52.5t-48 -21.5h-248q-28 0 -48 21.5t-20 52.5v172q0 31 20 52.5t48 21.5h60v0h128v0h60zM511.5 384q-26.5 0 -45 -18t-18.5 -43q0 -31 36 -51v-79h55v79q37 20 37 51q0 25 -19 43t-45.5 18zM512 576q-21 0 -35 -7.5
t-19.5 -20t-7.5 -20.5t-2 -16v-64h-64v58q0 5 0.5 14t7.5 32.5t19 41t38.5 32t62.5 14.5t62 -14t38.5 -33.5t19 -39.5t7.5 -33l1 -14v-58h-64v64q0 8 -2 16t-7.5 20.5t-19.5 20t-35 7.5zM512 -128q-104 0 -199 40.5t-163.5 109t-109 163.5t-40.5 199t40.5 199t109 163.5
t163.5 109t199 40.5q134 0 251 -66l47 66l86 -224l-224 33l53 73q-100 54 -213 54q-91 0 -174 -35.5t-143 -95.5t-95.5 -143t-35.5 -174t35.5 -174t95.5 -143t143 -95.5t174 -35.5t174 35.5t143 95.5t95.5 143t35.5 174q0 88 -34 170l59 25q39 -94 39 -195
q0 -104 -40.5 -199t-109 -163.5t-163.5 -109t-199 -40.5z" />
    <glyph glyph-name="daohangshousuo" unicode="&#xe604;" 
d="M726 598v-428h86v428h-86zM469 170h86v428h-86v-428zM212 170h86v428h-86v-428z" />
    <glyph glyph-name="204" unicode="&#xe623;" 
d="M1015 392q-262 333 -538 316q-100 -6 -196 -58q-77 -41 -148 -109q-80 -77 -126 -152q-5 -8 -5 -17q0 -10 5 -18q46 -75 126 -152q71 -68 148 -109q96 -52 196 -58q13 -1 26 -1q263 0 512 317q7 9 7 21q0 11 -7 20zM481 96q-157 9 -304 149q-61 58 -108 127
q47 68 108 126q147 140 304 149q237 14 472 -275q-235 -290 -472 -276zM512 517q-62 0 -106 -44t-44 -106.5t44 -106.5t106 -44t106.5 44t44.5 106.5t-44.5 106.5t-106.5 44zM511.5 278q-36.5 0 -63 26t-26.5 62.5t26.5 63t63 26.5t62.5 -26.5t26 -63t-26 -62.5t-62.5 -26z
" />
    <glyph glyph-name="goumai" unicode="&#xe63e;" 
d="M237 612l132 -376l-28 20h549q12 0 20.5 -8.5t8.5 -21t-8.5 -21t-20.5 -8.5h-549q-20 0 -27 20l-205 584l28 -19h-59q-13 0 -21.5 8.5t-8.5 20.5t8.5 20.5t21.5 8.5h59q20 0 27 -20l53 -150h711q14 0 22.5 -11t5.5 -24l-46 -228q-5 -20 -26 -23l-431 -48
q-12 -1 -21.5 6.5t-11 19.5t6 21.5t19.5 10.5l411 47q21 97 36 170q0 1 -80 1h-206h-209.5h-160.5v0zM407.5 78q17.5 0 30 -12.5t12.5 -30t-12.5 -30t-30 -12.5t-30 12.5t-12.5 30t12.5 30t30 12.5zM407 133q-40 0 -69 -28.5t-29 -69t29 -69.5t69.5 -29t69.5 29t29 69.5
t-29 69t-70 28.5v0zM816.5 78q17.5 0 30 -12.5t12.5 -30t-12.5 -30t-30 -12.5t-30 12.5t-12.5 30t12.5 30t30 12.5zM816 133q-40 0 -69 -28.5t-29 -69t29 -69.5t69.5 -29t69.5 29t29 69.5t-29 69t-70 28.5v0zM816 -63z" />
    <glyph glyph-name="setting" unicode="&#xe62e;" 
d="M541 755q12 0 20 -8.5t8 -20.5v-34q0 -12 8 -22.5t20 -14.5l47 -19q8 -5 18 -5q17 0 28 11l24 25q8 8 20 8t20 -8l41 -41q8 -8 8 -20t-8 -20l-25 -24q-8 -9 -10 -22t4 -24l19 -48q4 -11 15 -19t22 -8h35q11 0 19.5 -8.5t8.5 -19.5v-58q0 -11 -8.5 -19.5t-19.5 -8.5h-35
q-11 0 -22 -8t-15 -19l-19 -48q-6 -11 -4 -24t10 -22l25 -24q8 -8 8 -20t-8 -20l-41 -41q-8 -8 -20 -8t-20 8l-24 25q-11 10 -28 10q-10 0 -18 -4l-47 -19q-12 -4 -20 -15t-8 -22v-35q0 -11 -8 -19.5t-20 -8.5h-57q-12 0 -20.5 8.5t-8.5 19.5v35q0 11 -8 22t-19 15l-48 19
q-7 4 -17 4q-17 0 -28 -10l-24 -25q-9 -8 -20.5 -8t-20.5 8l-40 41q-8 8 -8 20t8 20l24 24q8 9 10 22t-3 24l-20 48q-3 11 -14 19t-23 8h-34q-12 0 -20.5 8.5t-8.5 19.5v58q0 11 8.5 19.5t20.5 8.5h34q12 0 23 8t14 19l20 48q5 11 3 24t-10 22l-24 24q-8 8 -8 20t8 20l40 41
q9 8 20.5 8t20.5 -8l24 -25q11 -11 28 -11q10 0 17 5l48 19q11 4 19 14.5t8 22.5v34q0 12 8.5 20.5t20.5 8.5h57zM512 241q59 0 101 42t42 101t-42 101t-101 42t-100.5 -42t-41.5 -101t41.5 -101t100.5 -42zM541 829h-57q-43 0 -73 -30t-30 -73v-10l-11 -4l-7 7
q-30 30 -72.5 30t-72.5 -30l-41 -40q-30 -30 -30 -73t30 -73l8 -7l-5 -11h-10q-43 0 -73 -30t-30 -72v-58q0 -42 30 -72t73 -30h10l5 -11l-8 -7q-30 -30 -30 -73t30 -72l41 -41q30 -30 72.5 -30t72.5 30l7 7l11 -4v-11q0 -42 30 -72t73 -30h57q42 0 72.5 30t30.5 72v11l10 4
l7 -7q31 -30 73.5 -30t72.5 30l40 40q30 30 30 73t-30 73l-7 7l4 11h11q42 0 72 30t30 72v58q0 42 -30 72t-72 30h-11l-4 11l7 7q30 30 30 73t-30 73l-40 40q-30 30 -72.5 30t-72.5 -30l-8 -7l-10 4v10q0 43 -30.5 73t-72.5 30v0zM512 316q-28 0 -48 20t-20 48t20 48.5
t48.5 20.5t48.5 -20.5t20 -48.5t-20 -48t-49 -20v0z" />
    <glyph glyph-name="chuli" unicode="&#xe625;" 
d="M510.5 828q-90.5 0 -173 -35t-142 -94.5t-94.5 -142t-35 -173t35 -173t94.5 -142t142 -95t173 -35.5t173 35.5t142 95t95 142t35.5 173t-35.5 173t-95 142t-142 94.5t-173 35zM803.5 364.5q-3.5 -9.5 -10.5 -16.5l-182 -182q-15 -14 -35.5 -14t-35 14.5t-14.5 35t15 34.5
l98 98h-376q-20 0 -34.5 14.5t-14.5 35t14.5 35t34.5 14.5h376l-98 98q-15 14 -15 34.5t14.5 35t35 14.5t35.5 -14l182 -183v0v0q7 -7 11 -16q3 -9 3 -18.5t-3.5 -19z" />
    <glyph glyph-name="xiajia" unicode="&#xe626;" horiz-adv-x="1050" 
d="M315 199l548 -1q19 1 33.5 13t19.5 30l106 449q7 25 -9 45q-18 23 -48 23h-218q-11 0 -19 -8t-8 -19t8 -19t19 -8h218q4 0 5 -1l-106 -449q-1 -2 -3 -2l-525 1l-110 451h229q11 0 19 8t8 19.5t-8 19t-19 7.5h-242l-29 122h-157q-11 0 -19 -7.5t-8 -19t8 -19t19 -7.5h115
l141 -579q-34 -10 -55 -39t-21 -64q0 -50 37 -82q-37 -33 -37 -82q0 -45 32 -77t76.5 -32t76.5 32t32 77q0 29 -15 55h386q-14 -26 -14 -55q0 -45 31.5 -77t76.5 -32t76.5 32t31.5 77t-31.5 77t-76.5 32h-574h-0.5h-0.5q-22 0 -37.5 16t-15.5 38.5t15.5 38.5t38.5 16z
M888.5 36q22.5 0 39 -16t16.5 -39t-16.5 -39t-39 -16t-38.5 16t-16 39t16 39t38.5 16zM314 36h0.5h1h0.5v0q23 -1 38.5 -17t15.5 -38q0 -23 -16 -39t-38.5 -16t-38.5 16t-16 39q0 22 15.5 38t37.5 17zM470 620l114 -110l0.5 -0.5l0.5 -0.5l0.5 -0.5l0.5 -0.5q1 0 1 -1h0.5
t1 -0.5t1 -0.5t0.5 -1h1l1 -0.5l1 -0.5h1v0l1 -1h0.5h0.5h2v0h1l1 -1h1h1h1h2v0v0q1 0 2 1h0.5h0.5h2h1q0 1 1 1h0.5h0.5l0.5 0.5l0.5 0.5h1.5t1 0.5l1 1t1.5 0.5q0 1 1 1q0 1 1 1l1 1l113 110q8 8 8.5 19t-7.5 19q-8 9 -19 9t-19 -8l-68 -66v276q0 11 -8 19t-19 8t-19 -8
t-8 -19v-276l-68 66q-8 8 -19.5 7.5t-19 -8.5t-7.5 -19t8 -19z" />
    <glyph glyph-name="huishouzhan" unicode="&#xe612;" horiz-adv-x="1070" 
d="M1018 652v49h-967v-49h967zM509 121h51v397h-51v-397v0zM348 172h51v295h-51v-295zM670 172h52v295h-52v-295v0zM911 45v637v19h-24h-480h-225h-23v-19v-637q0 -68 48 -116t116 -48h423q68 0 116.5 48t48.5 116zM328 -66q-48 0 -82 34t-34 82v602h645v-602q0 -48 -34 -82
t-81 -34h-414v0zM696 701v23v70q0 40 -26.5 66.5t-65.5 26.5h-138q-39 0 -65.5 -26.5t-26.5 -66.5v-70v-23h23h138h138h23v0zM427 701v80q0 23 12.5 38t30.5 15h129q19 0 31 -15t12 -38v-80h-215z" />
    <glyph glyph-name="saelect" unicode="&#xe603;" 
d="M512 384l-511 512h1023z" />
    <glyph glyph-name="jiebang" unicode="&#xe635;" 
d="M525 235q-8 7 -18.5 6t-17.5 -9l-110 -131q-39 -47 -94 -57.5t-93.5 21.5t-37.5 88t40 103l110 131q7 8 6 19t-9 17.5t-18.5 5.5t-17.5 -9l-110 -131q-53 -63 -52 -140t56 -123q42 -36 101 -36q43 0 85 20t73 58l110 131q7 8 6 18.5t-9 17.5zM910.5 683.5
q-30.5 65.5 -106.5 86.5q-73 20 -146 -15l-157 -72q-9 -5 -12.5 -15t0.5 -19.5t14 -13t20 0.5l156 73q57 26 112 11q52 -14 73 -58t-2 -94q-24 -51 -80 -78l-157 -73q-10 -4 -13.5 -14t0.5 -20q7 -14 23 -14q6 0 11 2l157 73q74 34 105 103q33 71 2.5 136.5zM407 581
q4 -10 7 -9.5t4 10.5l17 143q1 10 -5.5 16.5t-17.5 5.5l-35 -4q-10 -1 -15 -9t-2 -18zM186 635l138 -50q10 -4 12 -1t-5 10l-96 99q-7 8 -17 7.5t-17 -9.5l-23 -28q-7 -8 -4.5 -16.5t12.5 -11.5zM187 464l139 34q11 2 10.5 5t-10.5 5l-139 23q-10 1 -17.5 -5t-7.5 -16v-27
q1 -10 8 -16t17 -3zM412 323q8 -7 18 -7q11 0 19 8l187 208q7 8 6.5 18.5t-8 17.5t-18.5 6.5t-18 -8.5l-187 -207q-7 -8 -6.5 -18.5t7.5 -17.5z" />
    <glyph glyph-name="plus" unicode="&#xe609;" 
d="M925 402.5q0 -9.5 -6.5 -16.5t-16.5 -7h-349v-349q0 -10 -7 -16.5t-16.5 -6.5t-16.5 6.5t-7 16.5v349h-350q-9 0 -16 7t-7 16.5t7 16.5t16 7h350v350q0 9 7 16t16.5 7t16.5 -7t7 -16v-350h349q10 0 16.5 -7t6.5 -16.5z" />
    <glyph glyph-name="minus" unicode="&#xe60a;" 
d="M925 402.5q0 -9.5 -6.5 -16.5t-16.5 -7h-746q-9 0 -16 7t-7 16.5t7 16.5t16 7h746q10 0 16.5 -7t6.5 -16.5z" />
    <glyph glyph-name="fahuoziti" unicode="&#xe665;" horiz-adv-x="1045" 
d="M353 473q3 14 15.5 24.5t26.5 10.5h234q14 0 26.5 -10.5t15.5 -24.5l46 -251q3 -19 -7.5 -31.5t-29.5 -12.5h-336q-19 0 -29.5 12.5t-7.5 31.5l46 251v0zM293 484l-46 -251q-9 -47 20 -82t77 -35h336q48 0 77 35t20 82l-46 251q-6 36 -36 61t-66 25h-234q-36 0 -66 -25
t-36 -61v0zM481 445v184q0 13 9 22t22 9t22 -9t9 -22v-184q0 -12 9 -21t21.5 -9t21.5 9t9 21v184q0 38 -27 65.5t-65 27.5t-65 -27.5t-27 -65.5v-184q0 -12 9 -21t21.5 -9t21.5 9t9 21zM875 746.5q-73 72.5 -166.5 111t-196 38.5t-196 -38.5t-166 -111t-111.5 -166
t-39 -196.5q0 -152 83 -279q8 -12 22.5 -15t27 5t15.5 22t-5 27q-72 109 -72 240q0 90 35 171.5t94.5 140.5t141 94t171 35t171.5 -35t141 -94t94 -140.5t35 -171t-35 -171t-94 -141t-141 -94t-171 -34.5q-124 0 -228 63q-13 7 -27.5 3.5t-22 -16t-4 -26.5t16.5 -22
q121 -74 265 -74q102 0 195.5 39t166.5 111.5t111.5 166t38.5 196t-38.5 196t-111.5 166z" />
    <glyph glyph-name="icon-down" unicode="&#xe60d;" 
d="M512 86l-511 511h1023z" />
    <glyph glyph-name="yulan" unicode="&#xe639;" 
d="M931 698q0 47 -33 80t-80 33h-612q-47 0 -80 -33t-33 -80v-497v-1v-130q0 -47 33 -80t80 -33h522q13 0 22 9t9 22t-9 22t-22 9h-522q-21 0 -36 15t-15 36v530v98q0 21 15 36t36 15h612q21 0 36 -15t15 -36v-536q0 -12 9 -21t22 -9t22 9t9 21v536zM701 243q53 66 53 152
q0 102 -72 174.5t-174 72.5t-174 -72.5t-72 -174.5t72 -174t174 -72q84 0 150 51l165 -166q9 -9 21.5 -9t21.5 9t9 22t-9 22zM323 395.5q0 76.5 54.5 130.5t131 54t130.5 -54t54 -130.5t-54 -131t-130.5 -54.5t-131 54.5t-54.5 131z" />
    <glyph glyph-name="caiwu1" unicode="&#xe62f;" 
d="M480 832q-130 0 -240.5 -64.5t-175 -175t-64.5 -240.5t64.5 -240.5t175 -175t240.5 -64.5t240.5 64.5t175 175t64.5 240.5t-64.5 240.5t-175 175t-240.5 64.5zM480 -64q-172 0 -294 122t-122 294t122 294t294 122t294 -122t122 -294t-122 -294t-294 -122zM697 589
q9 9 9 22t-9 22t-22 9t-22 -9l-174 -173l-171 171q-9 9 -21.5 9t-21.5 -9t-9 -21.5t9 -21.5l183 -183v-21h-160q-13 0 -22.5 -9.5t-9.5 -22.5t9.5 -22.5t22.5 -9.5h160v-128h-160q-13 0 -22.5 -9.5t-9.5 -22.5t9.5 -22.5t22.5 -9.5h160v-96q0 -13 9.5 -22.5t22.5 -9.5
t22.5 9.5t9.5 22.5v96h160q13 0 22.5 9.5t9.5 22.5t-9.5 22.5t-22.5 9.5h-160v128h160q13 0 22.5 9.5t9.5 22.5t-9.5 22.5t-22.5 9.5h-160v20z" />
    <glyph glyph-name="lingxing" unicode="&#xe645;" 
d="M718 525q-9 -9 -22 -9t-22 9l-144 145q-9 9 -9 22t9 22l144 144q9 9 22 9t22 -9l144 -144q9 -9 9 -22t-9 -22z" />
    <glyph glyph-name="fahuo" unicode="&#xe630;" 
d="M969 544l-58 52q-48 44 -113 44h-158v80q0 47 -33 80t-79 33h-416q-46 0 -79 -33t-33 -80v-720h128q0 -53 37.5 -90.5t90.5 -37.5t90.5 37.5t37.5 90.5h192h64q0 -53 37.5 -90.5t90.5 -37.5t90.5 37.5t37.5 90.5h128v420q0 74 -55 124zM926 497q34 -31 34 -77v-100h-128
v250q20 -6 36 -21zM256 -64q-26 0 -45 19t-19 45t19 45t45 19t45 -19t19 -45t-19 -45t-45 -19zM576 64h-209q-17 29 -46.5 46.5t-64.5 17.5t-64.5 -17.5t-46.5 -46.5h-81v656q0 21 14 35t34 14h416q20 0 34 -14t14 -35v-80v-576zM768 -64q-26 0 -45 19t-19 45t19 45t45 19
t45 -19t19 -45t-19 -45t-45 -19zM879 64q-17 29 -46.5 46.5t-64.5 17.5t-64.5 -17.5t-46.5 -46.5h-17v512h128v-320h192v-192h-81z" />
    <glyph glyph-name="jiekouguanli" unicode="&#xe636;" horiz-adv-x="1203" 
d="M537 786v55q0 23 -14.5 39t-33.5 16h-160q-20 0 -34 -16t-14 -39v-55h-192v-73h192v-55q0 -22 14 -38.5t34 -16.5h160q19 0 33.5 16.5t14.5 38.5v55h576v73h-576v0zM345 677v146h128v-146h-128v0zM537 55v55q0 22 -14.5 38.5t-33.5 16.5h-160q-20 0 -34 -16.5t-14 -38.5
v-55h-192v-73h192v-55q0 -23 14 -39t34 -16h160q19 0 33.5 16t14.5 39v55h576v73h-576v0zM345 -55v146h128v-146h-128v0zM921 475q0 23 -14.5 39t-33.5 16h-160q-20 0 -34 -16t-14 -39v-54h-576v-74h576v-54q0 -23 14 -39t34 -16h160q19 0 33.5 16t14.5 39v54h192v74h-192
v54v0zM729 311v146h128v-146h-128v0zM729 311z" />
    <glyph glyph-name="juzhong" unicode="&#xe640;" 
d="M293 750h438v146h-438v-146zM146 458h731v145h-731v-145zM293 165h438v146h-60h-378v-146zM73 -128h878v146h-878v-146z" />
    <glyph glyph-name="sku" unicode="&#xe610;" 
d="M47 298q18 -16 47.5 -26t56.5 -10q81 0 81 58q0 16 -8.5 29t-24 23t-57.5 31q-58 29 -76 53.5t-18 56.5q0 48 38.5 76.5t97.5 28.5q57 0 84 -14v-55q-35 24 -88 24q-36 0 -58 -14.5t-22 -41.5q0 -23 15.5 -37.5t66.5 -40.5q57 -27 79.5 -54t22.5 -61q0 -51 -36.5 -78
t-102.5 -27q-23 0 -53.5 6t-44.5 16v57zM634 225h-68l-145 176q-7 9 -10 14h-1v-190h-50v386h50v-182h1q4 7 10 15l140 167h62l-162 -185zM970 382q0 -163 -149 -163q-142 0 -142 158v234h50v-232q0 -116 97 -116q94 0 94 112v236h50v-229z" />
    <glyph glyph-name="yishouyuweishou" unicode="&#xe611;" 
d="M504 823l61 36q42 -54 75 -103l-36 -22h348v-59h-338v-68h308v-59h-308v-69h308v-59h-308v-70h357v-59h-737v-37h-71v322q-39 -45 -80 -86q-19 29 -44 60q141 132 222 303l68 -25q-26 -50 -54 -94h289q-27 44 -60 89zM165 217h718v-306h-70v49h-578v-49h-70v306zM234 607
h310v68h-307l-3 -6v-62zM234 479h310v69h-310v-69zM234 350h310v70h-310v-70zM813 156h-578v-135h578v135z" />
    <glyph glyph-name="cf-c22" unicode="&#xe631;" 
d="M918 557h-6v94q0 30 -19 51t-45 21h-349v51q0 30 -18.5 51t-45.5 21h-313q-27 0 -45.5 -21t-18.5 -51v-769q0 -30 18.5 -51t45.5 -21h726q26 0 45 21t19 51l70 480q0 30 -18.5 51t-45.5 21v0zM114 742q0 24 7 32t28 8h256q20 0 27.5 -8.5t7.5 -31.5v-75l2 -8h376
q20 0 27.5 -8.5t7.5 -31.5v-62h-663q-26 0 -45 -21t-19 -51l-12 -93v350zM856 38q0 -23 -7.5 -31.5t-27.5 -8.5h-671q-20 0 -27.5 8.5t-7.5 30.5l71 414q0 24 7 32t28 8h670q20 0 27.5 -8t7.5 -30zM856 38z" />
    <glyph glyph-name="fenxiaoguanli" unicode="&#xe667;" 
d="M965 239h-70q0 80 -17.5 145.5t-43 107.5t-60.5 74t-64 48t-60 27v58q0 24 -17.5 41.5t-41.5 17.5h-171q-24 0 -41.5 -17.5t-17.5 -41.5v-61q-31 -12 -59.5 -28.5t-62 -49t-58 -74t-40.5 -106t-16 -141.5h-66q-24 0 -41.5 -17t-17.5 -42v-124q0 -25 17.5 -42.5
t41.5 -17.5h171q24 0 41.5 17.5t17.5 42.5v124q0 25 -17.5 42t-41.5 17h-66q0 68 13 124.5t33 94t47.5 67t52 45.5t51.5 27v-23q0 -24 17.5 -41.5t41.5 -17.5h66v-276h-66q-24 0 -41.5 -17t-17.5 -42v-124q0 -25 17.5 -42.5t41.5 -17.5h171q24 0 41.5 17.5t17.5 42.5v124
q0 25 -17.5 42t-41.5 17h-66v276h66q24 0 41.5 17.5t17.5 41.5v26q27 -10 52 -25.5t54.5 -44.5t50 -67t34.5 -96t14 -128h-61q-24 0 -41.5 -17t-17.5 -42v-124q0 -25 17.5 -42.5t41.5 -17.5h171q24 0 41.5 17.5t17.5 42.5v124q0 25 -17.5 42t-41.5 17z" />
    <glyph glyph-name="kuaidi" unicode="&#xe65d;" 
d="M916 763h-481q-17 0 -30 -12.5t-13 -30.5v-133h-185q-31 0 -53 -21l-64 -60q-24 -23 -24 -56v-97v-4q-1 -4 -1 -9v-153q0 -17 12.5 -30t30.5 -13h54q-14 -26 -14 -56q0 -49 34.5 -83.5t83 -34.5t83 34.5t34.5 83.5q0 30 -14 56h54h203q-14 -26 -14 -56q0 -49 34.5 -83.5
t83 -34.5t83 34.5t34.5 83.5q0 30 -15 56h84q18 0 30.5 13t12.5 30v533q0 18 -12.5 30.5t-30.5 12.5zM729.5 31q-23.5 0 -40 16.5t-16.5 40t16.5 40t40 16.5t40 -16.5t16.5 -40t-16.5 -40t-40 -16.5zM127 450q0 7 5 11l64 61q4 4 11 4h185v-143h-265v67zM126 322h266v-116
h-266v116zM322 88q0 -23 -16.5 -39.5t-40 -16.5t-40 16.5t-16.5 39.5t16.5 39.5t40 16.5t40 -16.5t16.5 -39.5zM898 206h-444v134v362h444v-496z" />
    <glyph glyph-name="zuoduiqi" unicode="&#xe641;" 
d="M572 831h-444v-127h444v127v0zM827 577h-700v-127h700v127v0zM127 67v-127h763v127h-763v0zM572 194v127h-444v-127h444v0zM572 194z" />
    <glyph glyph-name="quanxianguanli" unicode="&#xe65b;" horiz-adv-x="1025" 
d="M509 570q-25 0 -42.5 -17.5t-17.5 -42.5t17.5 -42.5t42 -17.5t42 17.5t17.5 42.5t-17.5 42.5t-41.5 17.5v0zM509 570zM759 758q-140 0 -250 82q-111 -82 -250 -82q-48 0 -100 18v-393q0 -55 38 -129q39 -77 110 -156q64 -71 136 -126q27 -20 51 -34q11 -7 21 0
q24 15 51 36q75 56 140 127q74 81 114 156q38 73 38 126v393q-51 -18 -99 -18v0zM546 351v-171q0 -16 -11 -27t-26 -11v0q-16 0 -27 11t-11 27v171q-54 13 -90 57.5t-36 101.5q0 68 48 115.5t115.5 47.5t115.5 -47.5t48 -115.5q0 -57 -35.5 -101.5t-90.5 -57.5v0zM546 351z
" />
    <glyph glyph-name="wuxiao" unicode="&#xe637;" 
d="M16 483h196q10 52 12 116h-170v39h406v-39h-193q-4 -64 -13 -116h244v-39h-253q-38 -169 -209 -262q-11 17 -27 35q149 75 194 227h-187v39zM272 408h40v-132q0 -39 37 -39h69q33 0 38 29q4 29 6 74q19 -7 42 -14q-5 -50 -9 -75q-7 -50 -71 -50h-86q-66 0 -66 69v138z
M568 405l26 24q34 -32 67 -65q22 36 39 79l36 -19q-21 -47 -47 -88q36 -36 70 -73l-34 -28q-31 36 -60 68q-53 -69 -125 -115q-9 13 -26 33q74 42 125 110q-38 41 -71 74zM597 543l33 -21q-41 -58 -85 -113q-12 10 -30 23q37 44 82 111zM526 596h252v-34h-252v34zM616 664
l35 17q20 -32 38 -65l-35 -18q-19 36 -38 66zM699 541q32 -33 74 -81l-30 -25q-31 38 -71 85zM839 679l39 -6q-10 -48 -25 -91h160v-34h-34q-13 -146 -63 -228q42 -57 107 -95q-16 -22 -27 -40q-64 43 -106 99q-46 -58 -114 -103q-11 15 -28 32q74 50 118 108
q-42 75 -54 174q-12 -21 -25 -40q-11 15 -25 32q57 81 77 192zM939 548h-97q8 -110 49 -188q42 77 48 188z" />
    <glyph glyph-name="youduiqi" unicode="&#xe642;" 
d="M149 582h726v-147h-726v147zM388 333h487v-147h-487v147zM388 832h487v-147h-487v147zM149 84h726v-147h-726v147z" />
    <glyph glyph-name="icon6" unicode="&#xe64b;" 
d="M867 -127h-713q-19 0 -32.5 14t-13.5 33v47h805v-47q0 -19 -13.5 -33t-32.5 -14zM108 596q0 20 13.5 34t32.5 14h124q0 97 68 166.5t164.5 69.5t164.5 -69.5t68 -166.5h124q19 0 32.5 -14t13.5 -34v-582h-805v582zM650 644q0 58 -41 99.5t-98.5 41.5t-98.5 -41.5
t-41 -99.5h279z" />
    <glyph glyph-name="jiacu" unicode="&#xe643;" 
d="M427 896q127 0 189.5 -10t111.5 -42.5t82 -86t33 -119.5q0 -72 -40 -132t-109 -90q97 -27 149.5 -92.5t52.5 -154.5q0 -70 -34 -135.5t-92.5 -105t-144.5 -48.5q-55 -6 -261 -7h-364v1023h427zM192 512h152q136 0 168 4q60 7 94 39.5t34 86.5q0 51 -29.5 83t-87.5 39
q-34 4 -198 4h-133v-256zM192 64h224q131 0 166 6q54 8 88 38t34 81q0 43 -26 73.5t-75.5 44t-215.5 13.5h-195v-256z" />
    <glyph glyph-name="arrowsalt" unicode="&#xe64f;" 
d="M806 587l-203 -203l203 -203l83 82q16 18 40 8q22 -9 22 -33v-256q0 -15 -11 -26t-26 -11h-256q-24 0 -33 23q-10 22 8 39l82 83l-203 203l-203 -203l82 -83q18 -17 8 -39q-9 -23 -33 -23h-256q-15 0 -26 11t-11 26v256q0 24 23 33q22 10 39 -8l83 -82l203 203l-203 203
l-83 -82q-10 -11 -25 -11q-7 0 -14 3q-23 9 -23 33v256q0 15 11 26t26 11h256q24 0 33 -23q10 -22 -8 -39l-82 -83l203 -203l203 203l-82 83q-18 17 -8 39q9 23 33 23h256q15 0 26 -11t11 -26v-256q0 -24 -22 -33q-8 -3 -15 -3q-15 0 -25 11z" />
    <glyph glyph-name="chainbroken" unicode="&#xe650;" 
d="M287 170l-146 -147q-6 -5 -13 -5t-13 5q-5 6 -5 13.5t5 13.5l146 146q6 5 13.5 5t12.5 -5q6 -6 6 -13.5t-6 -12.5zM384 146v-183q0 -8 -5 -13t-13 -5t-13.5 5t-5.5 13v183q0 8 5.5 13.5t13.5 5.5t13 -5.5t5 -13.5zM256 274q0 -8 -5 -13t-13 -5h-183q-8 0 -13 5t-5 13
t5 13.5t13 5.5h183q8 0 13 -5.5t5 -13.5zM978 201q0 -68 -48 -116l-84 -83q-48 -48 -116 -48q-69 0 -117 49l-191 191q-12 12 -24 32l137 11l156 -157q15 -15 38.5 -15.5t39.5 14.5l84 84q16 16 16 38q0 23 -16 39l-157 157l10 137q20 -12 32 -24l192 -192q48 -49 48 -117z
M626 615l-137 -10l-156 156q-16 16 -39 16q-22 0 -39 -15l-84 -84q-16 -16 -16 -38q0 -23 16 -39l157 -156l-10 -138q-20 12 -32 24l-192 192q-48 50 -48 117q0 69 48 116l84 83q48 48 116 48q69 0 117 -49l191 -191q12 -12 24 -32zM987 567q0 -8 -5 -13t-13 -5h-183
q-8 0 -13 5t-5 13t5 13t13 5h183q8 0 13 -5t5 -13zM677 878v-183q0 -8 -5.5 -13t-13.5 -5t-13 5t-5 13v183q0 8 5 13t13 5t13.5 -5t5.5 -13zM909 791l-146 -146q-6 -5 -13 -5t-13 5q-6 6 -6 13.5t6 12.5l146 147q6 5 13 5t13 -5q5 -6 5 -13.5t-5 -13.5z" />
    <glyph glyph-name="eraser" unicode="&#xe651;" horiz-adv-x="1096" 
d="M511 91l192 220h-439l-192 -220h439zM1090 707q9 -20 5.5 -41t-17.5 -37l-512 -586q-22 -25 -55 -25h-439q-21 0 -39 12t-28 31q-8 20 -5 41t17 37l512 586q22 25 55 25h439q22 0 40 -12t27 -31z" />
    <glyph glyph-name="image" unicode="&#xe652;" horiz-adv-x="1098" 
d="M366 567q0 -46 -32 -78t-78 -32t-78 32t-32 78t32 78t78 32t78 -32t32 -78zM951 347v-256h-805v110l183 183l92 -91l292 292zM768 987h-914q-8 0 -13.5 -5t-5.5 -13v-695q0 -7 5.5 -12.5t13.5 -5.5h914q7 0 12.5 5.5t5.5 12.5v695q0 8 -5.5 13t-12.5 5zM859 969v-695
q0 -37 -26.5 -64t-64.5 -27h-914q-38 0 -65 27t-27 64v695q0 38 27 65t65 27h914q38 0 64.5 -27t26.5 -65z" />
    <glyph glyph-name="link" unicode="&#xe653;" 
d="M869 201q0 23 -16 39l-119 119q-16 16 -39 16q-24 0 -41 -18q1 -2 10.5 -11t12.5 -12.5t8.5 -11t7.5 -14.5t2 -15q0 -23 -16 -39t-39 -16q-9 0 -16 2t-14.5 7.5t-11 8.5t-12 12t-10.5 11q-19 -18 -19 -42q0 -23 16 -39l118 -118q15 -15 39 -15q23 0 39 14l84 84
q16 16 16 38zM467 604q0 23 -16 39l-118 118q-16 16 -39 16q-22 0 -39 -15l-84 -84q-16 -16 -16 -38q0 -23 16 -39l119 -119q16 -15 39 -15q24 0 41 18q-1 1 -10.5 10t-12.5 12.5t-8.5 11t-7.5 14.5t-2 16q0 22 16 38t39 16q9 0 16 -2t14.5 -7t11 -8.5t12 -12.5t10.5 -11
q19 18 19 42zM978 201.5q0 -68.5 -48 -116.5l-84 -83q-48 -48 -116 -48q-69 0 -117 49l-118 118q-47 48 -47 116q0 70 50 120l-50 50q-49 -50 -119 -50q-68 0 -116 48l-119 118q-48 48 -48 117t48 116l84 83q48 48 116 48q69 0 117 -49l118 -118q47 -47 47 -116
q0 -70 -50 -119l50 -51q49 51 119 51q68 0 116 -48l119 -119q48 -48 48 -116.5z" />
    <glyph glyph-name="listol" unicode="&#xe654;" 
d="M218 -30q0 -45 -31.5 -71.5t-77.5 -26.5q-60 0 -98 38l32 50q28 -26 61 -26q17 0 29 8.5t12 24.5q0 36 -60 32l-15 32q5 6 19 25t24 30.5t21 22.5v0q-9 0 -27.5 -0.5t-27.5 -0.5v-30h-61v87h191v-51l-55 -65q29 -7 46.5 -28.5t17.5 -50.5zM219 329v-91h-207q-3 20 -3 31
q0 29 13 53t32 38.5t38 27t32.5 25t13.5 25.5q0 15 -8.5 22.5t-22.5 7.5q-26 0 -46 -33l-49 34q14 29 41 45t60 16q42 0 70.5 -23.5t28.5 -64.5q0 -28 -19.5 -52t-43 -37t-43 -28.5t-20.5 -30.5h73v35h60zM1024 146v-109q0 -8 -5.5 -13.5t-12.5 -5.5h-695q-8 0 -13 5.5
t-5 13.5v109q0 8 5 13.5t13 5.5h695q7 0 12.5 -5.5t5.5 -13.5zM219 660v-57h-191v57h61q0 23 3 69.5t3 69.5v7h-1q-5 -10 -29 -31l-40 43l77 73h61v-231h62h-6zM1029 439v-110q0 -7 -5.5 -12.5t-12.5 -5.5h-695q-7 0 -12.5 5.5t-5.5 12.5v110q0 8 5 13t13 5h695
q7 0 12.5 -5.5t5.5 -12.5zM1029 731v-109q0 -8 -5.5 -13.5t-12.5 -5.5h-695q-7 0 -12.5 5.5t-5.5 13.5v109q0 8 5.5 13.5t12.5 5.5h695q7 0 12.5 -5.5t5.5 -13.5z" />
    <glyph glyph-name="listul" unicode="&#xe655;" 
d="M219 91.5q0 -45.5 -32 -77.5t-77.5 -32t-77.5 32t-32 77.5t32 77.5t77.5 32t77.5 -32t32 -77.5zM219 384q0 -46 -32 -78t-77.5 -32t-77.5 32t-32 78t32 78t77.5 32t77.5 -32t32 -78zM1024 146v-109q0 -8 -5.5 -13.5t-12.5 -5.5h-695q-8 0 -13 5.5t-5 13.5v109q0 8 5 13.5
t13 5.5h695q7 0 12.5 -5.5t5.5 -13.5zM219 676.5q0 -45.5 -32 -77.5t-77.5 -32t-77.5 32t-32 77.5t32 77.5t77.5 32t77.5 -32t32 -77.5zM1024 439v-110q0 -7 -5.5 -12.5t-12.5 -5.5h-695q-8 0 -13 5.5t-5 12.5v110q0 7 5 12.5t13 5.5h695q7 0 12.5 -5.5t5.5 -12.5zM1024 731
v-109q0 -8 -5.5 -13.5t-12.5 -5.5h-695q-8 0 -13 5.5t-5 13.5v109q0 8 5 13.5t13 5.5h695q7 0 12.5 -5.5t5.5 -13.5z" />
    <glyph glyph-name="minus1" unicode="&#xe656;" 
d="M914 475v-109q0 -23 -16 -39t-39 -16h-694q-23 0 -39 16t-16 39v109q0 23 16 39t39 16h694q23 0 39 -16t16 -39z" />
    <glyph glyph-name="pencil" unicode="&#xe657;" 
d="M281 18l52 52l-135 135l-52 -52v-62h73v-73h62zM579 549q0 12 -12 12q-6 0 -10 -4l-310 -310q-4 -4 -4 -9q0 -13 13 -13q6 0 10 4l309 310q4 4 4 10zM549 658l237 -237l-475 -476h-238v238zM463 128q0 -30 -21 -51l-95 -95l-237 237l95 95q20 21 51 21q30 0 52 -21
l134 -134q21 -22 21 -52z" />
    <glyph glyph-name="table" unicode="&#xe658;" 
d="M329 110v109q0 8 -5 13.5t-13 5.5h-183q-8 0 -13 -5.5t-5 -13.5v-109q0 -8 5 -13.5t13 -5.5h183q8 0 13 5.5t5 13.5zM329 329v110q0 8 -5 13t-13 5h-183q-8 0 -13 -5t-5 -13v-110q0 -8 5 -13t13 -5h183q8 0 13 5t5 13zM622 110v109q0 8 -5.5 13.5t-13.5 5.5h-182
q-8 0 -13.5 -5.5t-5.5 -13.5v-109q0 -8 5.5 -13.5t13.5 -5.5h182q8 0 13.5 5.5t5.5 13.5zM329 549v109q0 8 -5 13.5t-13 5.5h-183q-8 0 -13 -5.5t-5 -13.5v-109q0 -8 5 -13.5t13 -5.5h183q8 0 13 5.5t5 13.5zM622 329v110q0 8 -5.5 13t-13.5 5h-182q-8 0 -13.5 -5t-5.5 -13
v-110q0 -8 5.5 -13t13.5 -5h182q8 0 13.5 5t5.5 13zM914 110v109q0 8 -5 13.5t-13 5.5h-183q-8 0 -13 -5.5t-5 -13.5v-109q0 -8 5 -13.5t13 -5.5h183q8 0 13 5.5t5 13.5zM622 549v109q0 8 -5.5 13.5t-13.5 5.5h-182q-8 0 -13.5 -5.5t-5.5 -13.5v-109q0 -8 5.5 -13.5
t13.5 -5.5h182q8 0 13.5 5.5t5.5 13.5zM914 329v110q0 8 -5 13t-13 5h-183q-8 0 -13 -5t-5 -13v-110q0 -8 5 -13t13 -5h183q8 0 13 5t5 13zM914 549v109q0 8 -5 13.5t-13 5.5h-183q-8 0 -13 -5.5t-5 -13.5v-109q0 -8 5 -13.5t13 -5.5h183q8 0 13 5.5t5 13.5zM987 731v-621
q0 -38 -26.5 -65t-64.5 -27h-768q-38 0 -64.5 27t-26.5 65v621q0 38 26.5 65t64.5 27h768q38 0 64.5 -27t26.5 -65z" />
    <glyph glyph-name="undo" unicode="&#xe659;" 
d="M951 384q0 -89 -35 -170t-94 -140t-140 -94t-170 -35q-98 0 -186.5 41.5t-151.5 116.5q-4 6 -3.5 13t4.5 12l79 79q5 5 14 5q9 -1 13 -7q42 -54 102.5 -84t128.5 -30q59 0 113 23.5t93.5 63t63 93.5t23.5 113t-23.5 113t-63 93.5t-93.5 63t-113 23.5q-56 0 -107.5 -20.5
t-91.5 -58.5l78 -79q18 -17 8 -39q-9 -23 -33 -23h-256q-15 0 -26 11t-11 26v256q0 24 23 33q22 10 39 -8l75 -73q61 57 139.5 89t162.5 32q89 0 170 -35t140 -94t94 -140t35 -170z" />
    <glyph glyph-name="underline" unicode="&#xe64d;" 
d="M0 -49h945v-79h-945v79zM0 896h407v-62l-88 -6l-20 -18v-444q0 -127 54 -181.5t177 -54.5q114 0 165 58t51 190v427l-22 22l-91 7v62h322v-62l-86 -7l-20 -22v-440q0 -177 -88.5 -256t-285.5 -79q-103 0 -181 26.5t-122 77.5q-34 39 -48.5 90t-14.5 147v439l-20 18l-89 6
v62z" />
    <glyph glyph-name="zengsongjilu" unicode="&#xe64e;" 
d="M768 522h-46q15 0 26 38q9 28 -10 53q-1 2 -3 3q-21 18 -46.5 22t-50.5 -4.5t-42.5 -18t-33.5 -21.5q-7 -4 -8.5 -12t3 -15t12.5 -8.5t15 3.5l1 0.5l1 0.5q10 8 22 14.5t30.5 14.5t37 7.5t32.5 -11.5q5 -8 3 -17q-3 -10 -14.5 -19.5t-19.5 -12.5q-39 -15 -65 -16
l-1.5 -0.5l-1.5 -0.5h-55l-1 2q-1 1 -1 2q-67 62 -78 69q-54 37 -101.5 42.5t-78.5 -21.5q-2 -1 -3 -3q-19 -25 -10 -53q11 -38 26 -38h-50q-8 0 -14.5 -6t-6.5 -14v-99q0 -7 1 -10t5.5 -6t13.5 -3v-193q0 -25 17 -43.5t40 -18.5h397q24 0 40.5 18.5t16.5 43.5v193
q10 0 14.5 3t5 6t0.5 10v99q0 8 -5.5 14t-13.5 6v0zM417 523q-26 2 -66 16q-8 3 -19 12.5t-14 19.5q-3 9 3 17q44 34 132 -26q1 -1 45 -40h-78l-1.5 0.5l-1.5 0.5v0zM748 483v-59h-470l-2 -1v60h472v0zM710 168h-397q-7 0 -12.5 7.5t-5.5 15.5v193h433v-193q0 -9 -5.5 -16
t-12.5 -7v0zM609 255h157v-127h-157v127zM584 287h170v-141h-170v141zM754 275q-34 33 -81 33t-80.5 -33.5t-33.5 -80.5q0 -34 18 -62q5 -7 11.5 -2.5t2.5 10.5q-16 25 -16 54q0 41 28.5 69.5t69 28.5t69.5 -28.5t29 -69.5t-29 -69.5t-69 -28.5q-28 0 -51 14q-7 4 -11 -3
t3 -11q27 -16 59 -16q47 0 80.5 33.5t33.5 80.5t-33 81v0zM668 272q-10 0 -10 -10v-72l0.5 -0.5l0.5 -0.5q0 -9 10 -9v0v0h57q10 0 10 10t-10 10h-47v62q0 10 -11 10v0zM672 121q-37 0 -64 27t-27 64.5t27 64.5t64.5 27t64.5 -27t27 -64.5t-27 -64.5t-65 -27v0zM672 327
q-47 0 -80.5 -33.5t-33.5 -81t33.5 -81t81 -33.5t81 33.5t33.5 81t-33.5 81t-81.5 33.5v0zM678 270h-17v-69l60 -37l9 15l-52 31v60z" />
    <glyph glyph-name="linghuopeizhi01" unicode="&#xe65a;" 
d="M593 -56q-10 0 -18 5l-87 60q-10 6 -13 17.5t3 22.5q16 31 -1 64q-5 9 -22 14t-31 5q-13 0 -21.5 9t-8.5 22v113q0 12 8 21t20 10q18 1 35.5 7t22.5 12q4 9 3.5 17t-7.5 30q-5 16 -7 24q-6 23 13 35l93 56q13 8 26 4q14 -5 19 -19q2 -4 5.5 -9.5t17 -13.5t30.5 -9
q22 -1 37 15q8 8 12 17q4 14 18 19q13 4 26 -3l99 -60q11 -6 14 -18t-2 -22q-9 -17 -12.5 -35t0.5 -24q9 -13 16 -16t23 -3q15 -1 23 -2q12 -1 19.5 -10t7.5 -20v-114q0 -15 -11 -24t-24 -7q-3 1 -6 1q-28 0 -44 -22q-9 -10 -9 -24.5t12 -35.5q6 -10 3.5 -21t-11.5 -18
l-81 -64q-10 -7 -22.5 -6t-20.5 11q-10 12 -28 24.5t-36 12.5v0q-15 0 -30 -9t-20 -15t-7 -10q-7 -11 -20 -14h-6zM542 46l45 -31q39 38 88 38h1q41 0 81 -30l10 -8l40 32q-7 18 -9 35q-2 36 21 67q28 37 74 45v56q-49 2 -79 46q-21 31 -7 81q2 7 4 13l-51 30l-4 -4
q-32 -37 -80 -37q-3 0 -6 1q-51 2 -84 36q-2 2 -4 5l-47 -29q6 -21 8.5 -32.5t0.5 -30t-12 -35.5q-18 -29 -66 -42q-5 -1 -11 -2v-60q57 -11 76 -48q24 -46 11 -96zM752 832h-64h-34h-324h-58h-50q-37 0 -63 -26t-26 -63v-654q0 -36 26 -62t63 -26h190v61h-190q-11 0 -19 8
t-8 19v654q0 11 8 19t19 8h50h58h324h34h64q11 0 19 -8t8 -19v-200h61v200q0 37 -26 63t-62 26zM270 637l441 1v-61l-441 -1v61zM410 386v61l-138 -1v-61zM674 340q-50 0 -86 -35.5t-36 -86t36 -86t86 -35.5t86 35.5t36 86t-36 86t-86 35.5zM674 158q-25 0 -43 17.5
t-18 42.5t18 43t43 18t42.5 -18t17.5 -43t-17.5 -42.5t-42.5 -17.5z" />
    <glyph glyph-name="daochu" unicode="&#xe65f;" 
d="M522 718q12 0 21 -9l150 -150q9 -8 9 -21t-9 -21.5t-21 -8.5q-13 0 -22 9l-98 99v-348q0 -12 -9 -21t-21.5 -9t-21 9t-8.5 21v348l-99 -99q-9 -9 -21 -9q-13 0 -21.5 9t-8.5 21t8 22l150 149q9 9 22 9v0zM821 298q13 0 21.5 -8.5t8.5 -21.5v-120q0 -37 -26 -63
q-26 -27 -63 -27h-480q-37 0 -64 27q-26 27 -26 63v120q0 13 8.5 21.5t21 8.5t21.5 -8.5t9 -21.5v-120q0 -12 8.5 -21t21.5 -9h480q12 0 21 9t9 21v120q0 13 8.5 21.5t21.5 8.5h-1z" />
    <glyph glyph-name="zytjiaruheimingdan" unicode="&#xe662;" 
d="M786 338q-94 0 -160.5 -66.5t-66.5 -160.5q0 -51 21.5 -96t58.5 -76l2 -2l2 -2q63 -51 143 -51q94 0 160.5 66.5t66.5 160.5t-66.5 160.5t-160.5 66.5zM786 265q38 0 71 -17l-194 -229q-31 41 -31 92q0 64 45 109t109 45zM786 -43q-35 0 -67 15l193 228q28 -40 28 -89
q0 -64 -45 -109t-109 -45zM520 17h-430q13 135 114.5 227t239.5 92q71 0 137 -27q14 -6 28 -0.5t19.5 19.5t0 28t-19.5 20q-6 2 -15 6q23 15 43 34q80 80 80 193.5t-80 193.5t-193 80t-193 -80t-80 -193q0 -70 33 -130.5t89 -97.5q-9 -4 -16 -7q-77 -32 -136.5 -91.5
t-91.5 -136.5q-34 -79 -34 -167q0 -15 10.5 -25.5t25.5 -10.5h469q15 0 25.5 10.5t10.5 25.5t-10.5 26t-25.5 11zM243 610q0 83 59 141.5t142 58.5t141.5 -58.5t58.5 -141.5t-58.5 -142t-141.5 -59t-142 59t-59 142z" />
  </font>
</defs>
</svg>
